<!--?xml version="1.0"?-->
<svg xmlns="http://www.w3.org/2000/svg" version="1.2" baseProfile="tiny" width="100%" height="100%" viewBox="0 0 800 1224" stroke-linecap="round" stroke-linejoin="round">

<path d="M 509.88 1223.02 509.53 1222.84 508.67 1222.48 506.39 1221.55 503.01 1219.54 499.85 1217.98 497.55 1216.78 496.88 1216.45 495.11 1215.57 494.79 1215.41 492.29 1214.52 490.91 1213.9 488.42 1212.73 488.38 1212.72 486.73 1212.05 484.49 1210.93 481.56 1209.76 477.95 1208.15 477.46 1207.94 475.11 1206.96 474.32 1206.63 471.03 1204.77 467.41 1203.3 464.69 1202.1 460.76 1200.64 459.3 1200.12 456.66 1198.67 456.53 1198.6 453.77 1197.15 450.62 1195.82 448.13 1194.7 446.29 1193.97 443.03 1192.53 440.54 1191.41 437.46 1190.17 435.72 1189.47 434 1188.6 430.92 1187.26 429.13 1186.51 426.92 1185.45 423.64 1184.25 419.58 1182.73 418.05 1182.3 417.97 1182.28 416.4 1181.41 415.51 1181.12 413.47 1180.33 409.78 1178.79 408.42 1178.22 408.41 1178.21 408.4 1178.21 407.71 1177.92 405.14 1177.41 402.17 1175.72 397.36 1173.65 392.96 1171.85 392.95 1171.84 388.95 1169.71 386.55 1168.78 383.95 1167.37 380.95 1166.24 378.73 1165 378.68 1164.97 376.14 1163.84 374.14 1162.97 372.67 1162.24 371.2 1161.57 369.8 1160.9 367.33 1159.97 365.19 1158.76 362.33 1157.76 359.12 1156.56 356.05 1154.96 355.81 1154.88 353.32 1154.03 350.98 1152.83 348.38 1152.16 344.84 1150.56 341.64 1149.62 338.57 1148.62 335.83 1147.69 333.32 1147.4 332 1146.82 329.18 1145.77 327.65 1145.24 326.2 1144.93 324.41 1144.44 322.64 1143.89 320.98 1143.37 319.21 1142.82 318.48 1142.6 313.67 1140.48 306.4 1138.28 303.13 1137.47 298.52 1136.07 292.98 1134.67 289.38 1134.07 285.31 1132.74 279.84 1131.87 275.03 1130.87 271.29 1130 268.02 1129.13 264.09 1128.4 258.95 1127.33 251.07 1126.33 248.13 1125.86 242.53 1124.53 237.99 1123.53 231.72 1122.59 227.05 1121.92 223.24 1121.32 220.3 1121.12 217.03 1120.26 212.36 1121.19 209.63 1122.33 208.63 1123.99 208.29 1126.53 208.33 1128.66 208.2 1129.59 208.06 1131.18 208.03 1132.43 208.06 1133.37 208.08 1134.94 207.63 1135.26 206.12 1134.94 205.1 1134.62 204.7 1135.01 201.51 1134.34 202.29 1133.3 206.41 1133.72 206.59 1131.71 206.99 1128.29 207.31 1125.64 207.38 1125.11 206.89 1124.42 206.44 1123.82 206.06 1123.27 205.56 1122.85 204.99 1122.5 204.28 1122.16 203.67 1121.88 202.76 1121.49 201.14 1120.79 199.27 1120.11 198.36 1119.76 197.43 1119.42 196.27 1119.22 194.25 1119.22 192.74 1119.42 191.27 1119.7 190.23 1119.89 188.28 1120.84 187.04 1121.83 185.92 1123.07 185.37 1127.78 185.05 1130.73 188.85 1131.33 188.68 1132.42 178.78 1131.11 178.94 1129.91 183.73 1130.56 184.28 1126.58 184.56 1124.57 183.21 1122.33 181.64 1120.88 179.63 1119.25 176.39 1117.58 174.93 1116.89 172.71 1116.29 170.46 1116.13 167.96 1116.46 166.1 1116.89 163.81 1117.75 161.68 1118.82 160.23 1119.99 158.72 1121.49 157.39 1123.74 156.67 1124.84 156.26 1125.46 156.16 1129.54 163.71 1129.76 163.67 1131.11 151.3 1130.66 150.56 1130.44 150.78 1129.74 151.18 1129.44 154.81 1129.61 155.16 1122.23 154.91 1121.69 154.62 1121.33 154.29 1120.76 153.51 1120.24 152.28 1119.45 150.51 1118.48 149.79 1118.28 147.3 1117.76 145.78 1117.36 144.05 1117.16 142.16 1117.36 139.86 1117.45 138.37 1117.41 135.81 1117.85 133.75 1118.15 131.31 1118.53 129.1 1118.99 127.4 1119.42 126.74 1119.89 126.44 1121.19 125.14 1123.74 124.75 1125.22 125.24 1126.01 124.52 1126.4 123.87 1126.56 120.87 1132.67 118.05 1138.62 115.1 1144.83 114.16 1146.8 113.61 1147.97 113.45 1148.46 113.33 1148.94 112.98 1150.3 112.79 1151.03 112.64 1151.77 112.54 1152.35 112.48 1152.92 112.48 1154.19 112.49 1154.88 112.56 1155.8 112.61 1156.17 113.79 1159.03 114.86 1160.03 116.73 1160.7 118.26 1160.63 119.66 1160.63 121.26 1160.23 121.73 1162.19 116.99 1163.5 113.26 1164.9 110.84 1167.09 110.57 1167.29 109.57 1168.28 107.04 1172.01 104.85 1175.18 103.88 1176.59 103.54 1177.09 103.11 1177.58 102.56 1177.99 101.96 1178.33 101.25 1178.6 70.54 1186.74 68.81 1187.18 67.3 1187.46 66.03 1187.48 64.91 1187.28 63.94 1187.01 62.87 1186.52 55.76 1181.99 52.06 1180.66 49.12 1180.12 47.26 1180.05 45.31 1181.59 44.25 1182.86 43.65 1183.66 42.78 1183.53 41.98 1183.06 42.18 1182.26 42.44 1181.72 43.11 1181.46 43.71 1181.26 44.45 1180.59 44.05 1179.52 42.51 1177.92 40.11 1177.12 36.14 1177.09 35.64 1177.12 35.47 1177.19 33.05 1177.78 30.43 1177.45 26.49 1177.72 21.56 1178.45 19.09 1178.59 16.55 1179.59 14.95 1180.12 13.48 1180.46 11.88 1180.46 11.12 1180.74 10.21 1180.46 10.23 1178.8 10.48 1178.05 10.54 1177.32 9.76 1176.87 9.94 1176.12 9.61 1175.38 8.54 1174.65 7.54 1174.11 6.67 1173.08 6.59 1172.29 6.6 1171.05 6.54 1170.45 6.87 1169.18 6.47 1167.64 6.14 1166.57 5.67 1165.77 4.64 1165.15 4.07 1164.17 3.34 1163.37 2.67 1162.44 2.07 1161.37 1.47 1160.97 1.2 1160.5 1.47 1159.77 1.53 1159.17 1 1158.23 1.6 1158.3 2.4 1158.83 2.67 1159.77 3.6 1160.23 5 1160.5 7.81 1159.23 10.48 1157.43 13.68 1155.43 15.75 1154.43 16.28 1153.36 19.15 1151.49 19.84 1150.68 20.24 1145.78 20.34 1145.78 21.02 1142.15 21.49 1138.94 21.76 1135.61 22.89 1132.07 24.28 1129.88 25.54 1128.47 27.7 1127.26 30.1 1125.8 31.83 1124.93 34.5 1121.99 35.15 1121.3 35.84 1120.94 36.01 1121.19 36.15 1121.28 36.42 1121.44 34.92 1122.94 32.49 1125.37 29.98 1126.78 27.34 1128.48 25.12 1130.78 23.59 1133.3 22.95 1135.3 22.62 1138.26 22.29 1139.74 21.55 1145.01 21.49 1145.42 21.87 1145.81 22.12 1145.83 22.8 1145.85 22.8 1145.95 22.8 1146.61 23.02 1146.61 22.97 1147.76 22.95 1148.04 22.94 1148.05 22.77 1148.02 22.23 1148.51 22.14 1149.53 22.82 1149.53 23.14 1149.56 23.08 1152.2 22.91 1152.25 22.8 1153.76 22.79 1154.15 23.06 1154.15 24.19 1154.3 26.2 1153.48 37.92 1148.68 40.79 1147.5 40.61 1146.77 40.1 1144.84 39.63 1142.86 39.13 1141.06 38.65 1139.98 38.54 1139.64 38.3 1139.17 37.92 1139.21 37.22 1139.44 37.2 1139.42 36.96 1139.02 38.25 1138.8 37.15 1134.44 36.34 1134.58 35.26 1134.86 35.6 1136.81 35.01 1137 34.99 1136.8 34.38 1134.59 37.21 1134.05 36.95 1132.54 36.63 1132.67 36.2 1132.8 36 1132.33 36.6 1132.19 35.95 1129.84 36.76 1129.8 37.13 1129.78 37.2 1130.05 40.59 1142.93 40.64 1143.11 40.82 1143.12 42.54 1143.17 45.05 1142.93 47.4 1142.76 49.5 1142.21 52.73 1140.97 54.57 1140.22 57.12 1139.11 58.55 1138.38 59.36 1138.01 60.8 1137.34 62.71 1136.55 64.5 1135.92 66.62 1135.09 67.93 1134.76 68.15 1134.73 69.31 1134.42 70.12 1133.96 69.94 1133.18 69.77 1132.87 69.86 1132.67 69.58 1132.2 68.42 1130.18 68.77 1130 69.82 1131.91 70.39 1131.6 70.7 1132.26 70.93 1132.12 71.14 1132.11 71.31 1132.27 71.34 1132.33 71.83 1133.2 71.91 1133.17 72.1 1133.11 72.33 1133.08 72.44 1133.08 72.59 1133.02 72.74 1132.96 72.88 1132.94 72.95 1132.91 73.04 1132.87 73.14 1132.85 73.18 1132.83 73.31 1132.81 73.42 1132.77 73.51 1132.73 73.61 1132.71 73.72 1132.69 73.82 1132.65 73.89 1132.63 73.98 1132.59 74.08 1132.57 74.17 1132.54 74.23 1132.51 74.29 1132.48 74.42 1132.44 74.53 1132.4 74.59 1132.38 74.72 1132.32 74.83 1132.28 74.95 1132.22 75.07 1132.18 75.15 1132.16 75.27 1132.13 75.34 1132.09 75.4 1132.07 75.53 1132.01 75.61 1131.98 75.72 1131.95 75.87 1131.91 76 1131.85 76.44 1131.74 76.55 1131.7 76.66 1131.67 76.76 1131.64 76.87 1131.61 77.09 1131.53 77.19 1131.47 77.27 1131.43 77.36 1131.37 77.45 1131.32 77.53 1131.26 77.62 1131.2 77.75 1131.14 80.93 1129.74 82.92 1128.73 82.48 1127.73 80.35 1122.95 82.11 1122.06 83.12 1124.51 82.24 1124.9 82.3 1125.04 83.51 1128.17 84.2 1127.88 84.8 1127.61 85.9 1127.08 87.13 1126.58 88.27 1126.01 91.45 1124.44 89.75 1121.64 89.53 1121.67 89.38 1121.7 89.01 1121.14 89.03 1120.61 89.41 1120.51 89.75 1120.48 90.11 1121.08 90.11 1121.61 91.7 1123.98 91.9 1124.4 93.03 1123.82 94.95 1122.64 96.3 1121.77 98.17 1120.33 99.61 1119.07 102.06 1116.94 102.61 1116.54 103.66 1115.8 105.94 1114.19 104.9 1112.95 103.36 1110.97 104.24 1110.55 104.93 1111.35 105.16 1111.62 106.16 1110.83 106.28 1110.74 106.96 1111.71 106.72 1111.88 105.9 1112.46 105.91 1112.47 106.16 1112.78 106.73 1113.48 107.19 1113.19 108.22 1112.43 109.12 1112.01 109.68 1111.55 109.95 1111.33 107.07 1107.91 107.5 1107.54 108.17 1108.33 108.02 1108.44 110.37 1111.04 110.55 1110.89 110.94 1110.59 111.47 1109.97 112.33 1109.17 113.35 1108.35 114.2 1107.56 115.24 1106.74 116.02 1106.09 116.71 1105.4 119.4 1103.7 122.88 1101.47 124.42 1100.39 125.97 1098.9 128.3 1097.42 130.31 1096.05 130.94 1095.68 124.77 1089.75 125.14 1089.41 131.55 1095.36 132.93 1094.13 133.77 1093.11 135.71 1090.92 137.48 1089.13 140.01 1087.07 142.35 1085.07 144.87 1083.31 145.52 1082.94 148.71 1080.42 151.9 1078.3 154.7 1076.66 156.82 1075.79 159.24 1074.54 160.3 1073.28 161.84 1072.31 163.68 1071.16 167.54 1067.68 170.24 1065.07 171.98 1062.76 172.75 1061.5 173.72 1059.38 170.63 1057.16 171.69 1054.17 174.2 1050.4 175.74 1047.5 175.94 1045.77 176.9 1046.25 176.9 1047.6 174.87 1050.98 172.17 1055.32 171.98 1056 172.27 1056.39 172.46 1057.35 175.36 1058.99 176.32 1057.83 177.1 1058.31 177.26 1058.4 178.4 1056.55 179.14 1055.23 179.33 1054.89 180.77 1052.33 180.19 1051.99 179.68 1051.69 179.8 1051.51 180.33 1051.83 180.96 1052.22 181.21 1051.83 180.63 1051.49 179.96 1051.1 180.04 1050.92 180.76 1051.35 181.21 1051.62 181.55 1051.02 180.86 1050.5 181.05 1049.63 177.77 1048.18 178.06 1046.73 178.83 1047.21 178.54 1047.99 182.82 1049.45 183.14 1048.8 183.88 1047.9 184.53 1047.13 185.42 1046.38 186.32 1045.78 185.23 1042.55 185.14 1042.01 185.37 1041.73 185.88 1041.85 185.89 1042.2 185.88 1042.51 185.8 1042.79 186.46 1044.93 191.81 1043.53 189.97 1036.51 187.12 1040.1 186.7 1039.43 187.32 1038.77 189.66 1035.96 189.18 1033.63 178.15 1024.33 176.85 1024.97 174.12 1024.53 171.61 1023.13 170.21 1020.77 169.11 1018.56 168.74 1017.3 150.53 1002.55 156.2 995.4 156.28 993.48 156.99 992.47 155.53 990.3 148.7 980.09 140.44 968.05 136.88 964.91 137.29 964.54 140.84 967.57 149.22 979.61 157.15 991.38 157.75 990.31 158.42 988.84 159.01 987.36 160.11 986.33 161.29 985.96 162.69 986.18 163.43 986.48 163.71 986.71 164.35 985.99 165.32 984.9 192.9 1007.37 204.65 1016.95 215.89 1003.53 224 993.97 226.34 991.08 227.07 989.81 227.36 988.98 227.79 987.46 227.74 985.37 213.35 984.05 213.5 981.98 228.15 983.32 228.72 975.93 214.09 974.75 214.53 968.12 228.99 969.09 229.49 962.28 215.34 960.97 215.71 954.33 230.02 955.27 230.68 948.34 216.37 947.4 216.52 944.82 230.76 946.11 230.97 942.53 220.13 930.22 210.99 919.16 221.9 910.16 231.35 920.45 242.39 933.45 241.37 934.05 241.15 935.3 243.88 938.03 247.64 941.91 250.29 942.24 251.55 942.09 253.01 941.25 253.49 939.71 253.7 939.35 254.5 938.36 258.84 933.06 258.83 932.62 258.65 932.65 258.69 932.98 254.63 937.77 254.65 937.56 257.29 934.12 257.8 933.33 257.38 930.87 253.8 931.71 253.61 930.68 254.4 930.45 256.08 921.9 254.83 921.87 254.8 921.22 257.42 921.32 256.64 919.9 255.85 919.02 255.61 918.13 256.03 917.3 256.59 916.55 257.05 914.92 257.38 913.34 257.15 911.25 256.77 910.09 257.15 909.07 257.75 908.23 258.08 907.49 258.54 906.84 258.82 906.23 258.45 904.88 256.04 900.2 251.35 902.57 243.07 906.18 242.48 905 264.43 894.22 262.82 891.1 260.96 887.82 260.96 886.06 262.12 884.66 269.14 881.13 273.32 879.04 275.69 876.43 272.16 877.18 245.36 890.75 244.76 889.66 256.25 884.02 260.9 881.4 261.99 880.46 259.47 875.9 234.62 888.74 234.21 887.88 259.07 874.91 256.55 869.91 243.23 876.4 242.69 875.41 256.16 868.75 255.6 867.56 240.06 862.44 207.84 878.67 202.86 869.4 201.6 871.66 198.65 876.94 194.93 883.58 193.21 886.65 193.42 886.73 192.7 888 193.03 888.26 191.21 891.22 191.47 891.35 190.77 892.55 189.61 891.89 190.21 890.71 190.38 890.79 190.85 889.8 190.33 889.56 191.52 887.47 191.89 887.65 192.72 886.31 192.88 886.44 194.63 883.33 198.31 876.78 201.29 871.42 202.47 869.23 202.32 868.92 201.03 869.2 192.76 874.2 186.76 880.7 187.78 881.66 186.95 882.55 185.98 881.74 185.89 881.58 181.6 886.41 177.61 890.81 171.48 897.57 170.41 905.05 170.62 905.11 170.54 905.85 170.31 905.8 169.91 908.42 170.17 908.52 170.07 909.18 169.83 909.11 169.39 911.82 170.05 911.96 169.31 916.76 168.71 916.71 168.33 919.33 168.61 919.35 168.54 920.14 168.25 920.06 167.94 921.8 168.25 921.83 168.18 922.59 167.92 922.56 167.68 924.24 168.23 924.33 168.17 924.78 168.11 924.94 167.95 925.12 167.77 925.21 167.57 925.24 167.31 925.2 167.08 925.13 166.87 924.94 166.77 924.75 166.87 924.13 167.42 924.2 167.7 922.49 167.4 922.46 167.53 921.74 167.8 921.78 168.04 920.08 167.74 920.05 167.86 919.29 168.15 919.32 168.54 916.66 167.89 916.57 168.54 911.79 168.73 911.84 168.79 911.66 169.14 911.69 169.55 909.1 169.3 909.06 169.42 908.3 169.66 908.43 170.01 905.69 169.78 905.65 169.89 904.98 170.11 905 171.18 897.41 177.55 890.41 183.66 883.62 183.7 883.62 186.51 880.49 192.5 873.96 201.06 868.92 202.56 868.58 202.22 868.21 201.43 868.09 199.96 868.7 199.24 869.13 198.58 869.53 197.6 870.12 197.21 870.35 196.07 870.82 194.82 871.33 193.05 872.06 191.49 872.71 190.55 873.35 188.91 874.86 187.76 875.91 184.08 879.78 184.03 879.75 179.57 884.91 168.96 897.2 158.01 909.84 141.17 928.95 133.78 937.83 133.19 937.38 142.89 925.95 153.73 913.72 160.02 906.64 161.24 904.99 164.1 901.61 167.59 897.7 169.57 895.51 176.61 887.47 178.53 885.18 179.8 883.52 181.99 881.06 185.71 876.84 188.83 873.25 191.5 870.66 195.41 868.23 199.7 866.26 200.19 864.09 200.68 863.12 201.29 861.6 201.11 858.98 200.68 856.55 200.56 854.91 200.74 851.93 200.07 849.86 199.59 847.91 199.77 844.57 199.46 841.35 199.1 839.52 198.25 836.97 197.74 834.41 197.73 833.19 198.7 823.69 197.64 821.76 196.18 820.49 195 819.72 194.27 818.93 193.29 812.9 192.83 809.89 192.49 807.38 192.59 806.65 193.13 805.64 193.95 805.04 194.82 804.77 195.62 804.76 199.65 805.86 213.55 809.63 214.22 809.24 214.84 808.89 215.56 808.49 216.54 807.97 216.88 805.42 217.41 800.02 218.2 795.94 220.7 791.33 221.88 786.99 221.88 782.11 222.8 778.3 223.07 774.08 223.07 769.74 224.65 765.66 226.88 758.02 228.6 751.83 230.04 747.62 231.23 740.38 232.94 731.56 233.73 725.5 234.65 721.55 234.78 717.21 236.89 714.05 239.52 711.81 242.02 709.57 244.79 704.04 246.9 698.91 249.53 693.12 252.56 687.98 257.56 678.11 264.14 660.73 268.22 645.99 273.75 630.85 278.62 613.99 282.05 600.96 284.68 583.58 286.52 572.13 287.18 568.05 288.23 565.81 288.23 562.78 288.1 560.15 289.95 552.12 291 544.11 283.02 543.16 283.06 542.7 291 543.26 291 541.06 291.92 535.13 292.45 525.52 292.45 519.47 291.79 515.39 291.39 511.17 291.79 508.01 292.45 503.01 292.71 489.24 292.84 481.18 292.71 472.35 292.33 466.08 293.35 462.37 298.6 454.05 303.72 447.78 307.17 442.28 307.17 439.47 308.07 437.16 309.35 434.22 310.5 431.92 311.39 428.97 312.55 425.9 313.19 422.58 314.08 420.91 315.36 417.2 316.51 412.85 317.02 409.91 317.15 407.09 317.42 406.05 311.02 405.64 310.88 405.84 310.15 405.84 310.18 405.11 311.34 405.14 311.4 405.41 317.49 405.76 317.92 404.02 318.82 397.88 319.7 391.14 320.11 385.83 321.37 381.96 321.82 377.99 322.36 369.48 323.17 363.76 323.17 359.66 323.53 354.71 323.62 349.85 324.07 345.75 324.03 339.22 324.12 333.86 323.62 329.18 323.35 323.95 323.13 319.94 322.99 315.76 322.95 312.15 323.08 309.54 322.81 304.68 322.68 298.33 322.32 293.01 322.41 290.18 322.5 288.02 322 286.85 321.82 283.87 321.82 281.04 322 277.52 321.28 271.89 321.1 267.53 320.88 263.83 320.42 259.15 319.84 253.61 319.48 251.18 318.89 247.49 318.71 243.61 317.77 233.93 316.96 227.13 316.24 221.55 315.52 216.1 314.8 211.37 314.57 207.81 314.03 204.25 313.58 195.38 312.68 190.16 312.18 185.43 310.97 181.38 310.93 180.12 292.05 183.72 282.87 190.34 281.38 190.61 281.56 191.51 276.92 192.54 276.47 190.7 281.07 189.44 281.34 190.11 283.05 189.48 291.92 183.13 310.92 179.49 310.88 177.95 309.98 171.06 309.03 164.67 307.91 160.88 275.35 171.42 275.08 170.7 307.69 160.13 306.42 155.84 304.17 141.66 302.23 132.47 298.15 113.82 297.1 109.59 295.87 100.8 294.43 93.1 294.29 89.14 293.5 85.45 292.1 80.62 291.39 76.06 291.13 71.58 290.17 66.58 289.2 62.71 287.44 56.57 285.78 51.39 285.34 47 284.46 42.08 283.49 37.08 281.39 31.2 280.33 25.93 280.13 21.75 282.3 21.63 286.49 21.34 302.53 20.59 303.53 20.44 310.06 19.24 312.17 18.71 314.24 18.13 316.63 17.41 317.3 17.21 318.25 16.92 318.58 16.82 319.63 16.5 320.64 16.24 321.84 15.91 324.27 15.27 326.03 14.77 327.57 14.38 328.39 14.18 330.46 13.65 331.16 13.4 332.65 12.51 334.96 11.13 335.11 11.04 335.12 11.03 336.51 9.9 342.51 5.02 343.22 4.45 343.21 4.45 343.75 3.95 344.31 3.48 344.91 3.04 345.53 2.65 346.17 2.29 346.88 1.95 347.32 1.78 347.61 1.66 348.36 1.42 349.12 1.22 349.39 1.18 349.9 1.08 350.55 1.01 351.2 1 351.85 1.04 352.27 1.1 352.69 1.19 352.86 1.23 354.4 1.7 354.55 1.77 355.07 2.01 356.13 2.49 356.66 2.73 356.87 2.82 357.01 2.91 359.64 4.1 362.86 6.38 364.12 7.6 364.22 7.66 364.23 7.81 364.23 8.78 363.9 9.43 363.45 11.72 363.55 13.88 363.95 14.7 364.25 15.18 364.3 15.38 364.41 15.59 364.58 16.04 364.89 16.84 365.44 18.14 365.8 19.01 365.99 19.45 366.45 19.9 366.72 20.17 367.49 21.22 367.56 21.42 367.81 22.2 367.85 22.33 367.85 22.42 367.91 24.25 367.95 25.55 367.92 25.87 367.85 26.77 368.05 27.39 368.31 28.13 368.85 29.07 369.34 30.08 369.38 30.17 369.52 30.45 370.07 31.46 370.56 32.04 371.04 33.38 371.29 35.42 371.27 35.74 371.17 37.61 371.09 39.47 371.26 41.66 371.32 43.45 371.32 43.62 371.32 43.77 371.51 45.84 371.51 46.91 371.21 48.02 371.23 48.61 371.26 49.17 371.86 50.74 372.76 52.41 373.73 54.24 374.4 55.08 375.05 55.91 375.07 55.92 376.71 57.38 377.81 59.54 378.01 60.91 378.03 60.95 378.32 61.95 378.93 62.77 379.52 63.79 380.31 65.16 380.49 65.4 381.39 66.55 382.05 67.44 382.18 67.62 382.7 69.07 382.81 69.6 382.88 69.88 383.16 71.08 383.4 71.93 383.7 73.19 384.2 73.78 384.45 74.07 385.51 74.66 385.8 74.78 386.58 75.11 386.91 75.32 387.55 75.71 388.4 76.75 389.04 77.89 389.3 79.48 389.57 80.87 390.12 82.1 390.74 83.04 392 83.59 393.2 84.19 394.04 84.06 394.14 84.02 395.18 83.63 396.36 82.81 397.25 82.52 398.67 82.67 399.89 83.02 401.21 83.91 402.55 84.85 403.4 85.41 404.59 86.03 405.93 86.65 406.92 87.25 407 87.3 407.1 87.39 407.17 87.45 408.42 88.63 409.96 92.21 411.63 95.02 411.92 95.49 413.34 97.86 413.67 99.36 413.89 99.63 415.43 101.56 416.49 102.23 417.76 103.04 420.48 105.76 423.59 107.84 423.74 107.96 424.45 108.51 425.01 108.96 425.78 109.58 427.81 110.89 430.02 113.21 430.68 114.23 431.77 115.87 433.34 118.43 434.16 120.3 434.46 121.01 435.12 122.14 435.01 122.48 434.73 123.38 434.61 123.73 433.73 124.5 432.46 125.32 432.21 125.56 431.87 125.81 431.12 127.28 430.55 128.55 430.1 130.39 430.7 132.73 431.73 136.05 431.82 136.34 431.15 137.77 430.5 138.87 430.75 140.16 431.97 142.77 432.79 145.38 433.33 146.88 433.46 147.25 433.19 149.02 433.91 151.31 434.98 151.83 437.66 153.09 438.34 153.41 439.98 154.28 440.99 155.09 442.33 156.82 443.18 158.16 443.49 159 443.65 159.43 443.93 159.66 444.92 160.5 445.31 160.9 446.29 161.92 447.04 162.44 448.18 163.24 449.05 164.11 449.14 164.31 449.85 165.95 450.37 167.77 451.59 169.61 452.56 170.68 453.22 171.34 453.48 171.6 453.31 172.41 453.22 172.74 452.56 175.12 452.31 176.58 452.26 176.89 451.99 177.26 451.29 178.23 450.87 179.45 450.77 181.27 450.77 183.46 450.96 184.71 451.02 185.15 451.54 186.72 451.62 187.01 452.04 188.56 452.19 190.08 452.12 190.47 451.99 191.1 451.98 191.12 450.82 192.13 449.75 193.41 449.33 193.9 448.83 194.47 448.53 195.96 448.03 196.76 447.93 198.01 448.13 199.99 448.32 200.92 448.53 201.96 448.61 203.01 448.68 203.9 448.73 205.02 449.1 206.69 449.4 208.17 450.02 208.93 450.82 209.7 451.89 210.11 452.76 210.36 452.96 211.33 453.11 213.57 453.16 214.84 453.49 215.48 454.03 216.55 454.7 217.35 455.3 217.55 455.72 217.7 456.58 218.03 456.77 218.12 457.51 218.44 458.17 218.54 458.77 218.64 459.34 219.29 459.3 219.96 458.6 220.86 458.4 221.13 457.68 222.18 457.47 223.04 457.4 223.35 457.09 224.02 456.95 224.16 456.26 224.79 455.67 225.98 455.44 227.28 454.79 228.19 454.7 228.29 454.28 228.94 453.55 230.13 452.6 231.2 452.11 232.02 452.85 233.1 453.97 234.21 454.37 234.73 454.65 235.11 455.15 236.52 454.9 237.84 454.94 238.92 455.37 239.28 455.96 239.76 456.94 240.7 457.27 240.88 458.33 241.47 459.39 242.84 459.7 243.99 460.72 245.58 461.46 247.09 462 248.42 462.35 249.74 462.36 249.78 462.58 251.4 462.73 253.56 462.85 255.28 462.97 257.46 462.73 258.49 461.74 260.65 461.54 261.96 461.61 264 461.81 264.59 462.21 265.8 462.31 266.12 462.4 267.14 462.4 267.46 462.4 268.53 462.36 268.67 462.03 270.07 461.9 270.59 461.66 271.51 461.58 272.96 461.13 274.27 461.05 274.62 460.72 276.27 459.95 277.81 459.83 278.05 459.13 279.32 459.13 279.34 458.53 280.47 457.86 281.78 457.86 281.79 457.67 283.73 457.56 284.84 457.5 285.16 457.48 285.29 457.42 285.6 457.38 285.85 456.54 289.53 456.16 291.56 458.06 292.46 459.44 293.33 462.44 294.6 465.29 291.72 467.83 293.62 470.03 292.44 471.87 291 475.31 293.76 475.99 294.92 474.67 297.11 475.62 297.97 476.48 298.73 477.76 299.86 478.43 300.51 479.6 301.62 480.11 302.37 480.58 302.71 480.95 302.98 482.55 304.14 486.71 305.15 490.29 306.05 494.32 307.11 497.52 309.54 500.65 312.12 501.4 312.79 502.62 313.88 502.71 314.18 502.89 314.76 503.02 315.17 503.13 315.56 503.17 315.67 503.43 316.45 503.74 317.44 503.91 317.95 504.07 318.19 504.84 319.36 504.96 319.49 506.27 320.9 508.21 322.99 508.22 323 508.85 323.73 509.5 324.57 510.48 325.84 512.07 327.94 513.15 329.36 513.26 329.36 513.85 330.11 514.73 331.25 515.65 332.43 515.92 332.77 515.93 332.79 517.47 334.7 520.23 331.75 524.99 337.71 525.15 337.9 517.51 346.3 510.76 354.14 500.92 365.47 502.88 367.53 499.53 372.12 498.04 372.38 498.16 375 498.11 375.16 498.19 375.69 498.33 376.67 498.86 379.79 499.13 381.38 499.19 381.75 499.92 386.18 499.53 387.8 499.28 388.24 496.97 392.48 496.56 393.24 496.09 393.92 495.98 394.09 495.38 394.97 495.25 395.16 491.73 397.82 491.33 398.44 490.94 399.03 489.43 401.33 487.27 404.64 486.55 405.67 486.3 406.02 482.97 410.81 482.29 411.79 481.28 413.59 481.05 414.19 480.91 414.58 480.67 415.21 480.36 415.81 479.66 417.17 478.98 418.49 478.52 419.39 478.51 419.42 478.38 419.68 477.31 421.51 476.42 423.04 476.18 423.48 474.59 426.43 474.56 426.47 473.15 428.2 471.38 431.05 471.18 431.39 471.42 431.82 471.54 432.04 471.7 432.32 472.67 434.08 472.6 434.52 472.25 435.42 471.94 436.99 471.87 437.35 471.21 439.19 470.19 441.21 469.26 442.75 468.9 443.37 467.76 445.41 466.34 450.33 465.69 451.83 464.74 453.02 464.71 453.05 464.52 453.29 462.73 455.54 461.84 456.83 461.71 457.23 461.43 458.12 460.89 460.06 460.67 460.82 460.44 461.6 459.85 462.21 458.74 462.88 457.37 463.4 456.64 464.02 455.52 465.27 455.17 465.66 454.68 466.16 454.4 466.45 452.05 468.38 450.63 469.87 450.34 470.34 450.02 470.89 449.83 471.56 449.9 473.37 449.95 474.51 449.91 475.64 449.88 476.66 449.86 477.27 449.84 477.9 449.83 478.38 449.85 478.78 449.9 479.94 449.91 480.23 449.94 480.49 449.97 480.71 450.16 482.03 450.17 482.14 450.2 482.52 450.27 483.79 450.28 483.97 450.34 484.83 450.45 485.73 450.5 486.08 450.59 486.27 450.88 486.83 451.61 487.76 452.08 488.35 452.08 488.36 452.09 488.38 452.86 489.66 453.01 489.91 453.05 490.07 453.2 490.65 453.3 491.03 453.52 492.05 453.65 492.68 453.67 492.78 453.72 493.01 453.62 494.31 453.55 494.47 453.51 494.54 453.46 494.65 453.36 494.88 453.39 495.12 453.55 496.44 453.57 496.62 453.75 498.1 455.31 497.49 455.45 497.43 458.63 496.18 458.72 496.15 458.99 496.8 459.34 497.65 459.75 498.8 459.86 499.08 460.38 500.83 462.25 501.78 467.51 504.72 468.12 504.99 468.38 505.1 471.22 506.09 471.83 506.34 477.58 508.63 479.26 509.29 479.51 509.39 480.6 509.83 482.51 510.58 484.89 511.53 495.29 515.65 496.12 515.99 496.77 516.25 497.36 516.53 497.87 516.09 498.98 515.13 499.11 515.02 499.14 515 500.8 513.56 505.36 508.65 506.03 507.93 513 500.41 513.42 499.96 520.44 492.38 521.88 493.69 523.36 495.03 525.2 496.69 527.1 498.41 527.24 498.55 527.55 498.85 527.6 498.9 528.49 500.15 531.2 505.4 531.55 506.07 532.25 507.42 532.94 508.76 532.97 508.81 533.81 510.44 536.37 515.43 536.61 515.89 538.22 519.05 538.42 519.44 539.78 522.07 540.34 523.17 540.41 523.31 541.66 525.67 543.23 528.62 545.71 533.34 547.2 536.15 547.77 536.33 548.19 536.46 549.45 536.85 549.49 536.87 557.46 539.84 557.48 539.84 559.87 540.74 561.14 541.18 562.37 541.61 564.73 542.57 565.06 542.73 566.88 543.6 567.83 544.05 568.02 544.17 568.16 544.25 568.22 544.14 568.7 543.47 570.51 540.92 570.61 540.78 573.18 532.58 574.22 529.27 576.99 520.86 577 520.84 577.42 520.93 577.53 520.96 578.52 521.17 578.85 521.25 579.41 521.37 579.66 521.42 581.81 526.27 581.85 526.35 581.88 526.42 582.74 528.36 583.23 529.46 583.65 530.42 585.94 535.58 586.38 536.57 586.48 536.8 586.65 537.07 587.11 537.79 587.43 538.29 588.82 540.48 590.53 543.83 590.92 544.6 592.12 547.09 597.39 558.1 599.5 562.51 601.04 565.73 603.62 571.13 604.3 572.55 605.09 574.19 605.58 575.22 607 578.17 607.19 578.58 607.25 578.69 607.83 579.92 607.92 579.89 610.33 578.99 610.86 578.79 610.96 578.75 611.19 578.79 614.42 579.28 618.57 579.59 619.01 579.63 624.14 580.77 622.1 585.25 622.76 586.02 623.06 586.39 624.43 588.01 624.83 588.47 626.5 590.19 626.77 590.44 627.57 591.17 628.36 592.04 628.48 592.16 633.26 589.88 635.13 588.99 637.4 587.91 640.71 586.3 643 584.63 644.84 583.29 644.91 583.24 645.07 583.45 645.21 583.64 646.53 585.45 646.97 586.05 647.12 586.26 647.95 587.4 648.39 587.09 648.8 586.8 648.88 586.73 649.73 588.6 650.33 589.9 650.63 590.57 652.15 594.32 652.16 594.36 653.89 593.63 655 593.17 655.46 592.97 658.07 591.88 658.16 591.84 658.23 591.79 658.27 591.91 658.39 592.21 658.71 593 659.68 595.43 659.63 595.45 658.28 596.02 656.42 596.8 654.96 597.41 655 597.51 655.02 597.55 655.47 598.62 656.25 600.47 656.33 600.66 656.47 600.99 657.82 604.18 658.34 605.4 660.03 609.39 660.05 609.43 658.11 610.42 656.49 611.24 656.47 611.25 656.49 611.29 656.51 611.33 657.55 613.68 658.5 615.83 658.49 615.94 658.47 616.15 658.44 616.38 658.44 616.44 658.44 616.45 658.43 616.49 657.89 616.77 659.36 619.61 661.07 622.94 661.61 623.97 662.72 626.13 663.28 627.21 663.3 627.26 663.36 627.23 663.36 627.24 663.59 627.13 665.54 626.23 666.82 625.64 668.55 624.84 669.3 624.49 669.5 624.4 669.59 624.36 670.73 623.83 671.64 623.77 679.09 623.29 679.33 624.35 679.95 627.62 679.86 629.55 683.44 636.7 686.76 643.07 690.83 642.43 692.28 642.36 692.71 642.34 692.98 642.34 694.6 642.33 696.82 642.4 699.87 642.49 699.91 643.34 699.94 643.82 700.01 645.25 701.79 647.65 702.19 648.25 704.24 651.33 706.75 655.3 708.43 657.65 710.43 660.72 714.15 666.72 714.33 667.14 714.51 667.58 714.69 667.98 714.73 668.19 715.06 669.83 715.17 670.4 715.22 670.63 715.29 670.84 715.56 671.68 715.7 672.12 715.94 672.74 716.68 674.71 716.85 675.42 716.97 675.93 716.86 676.67 716.75 677.42 716.31 678.43 716.01 678.74 715.95 678.86 715.86 678.9 715.78 678.99 715.67 679.1 714.26 679.69 714.03 679.84 712.98 680.54 712.39 681.04 712.33 681.1 712.12 681.27 712 681.37 712 681.38 711.88 681.47 708.69 685.5 708.58 685.66 707.3 687.57 705.69 689.99 705.42 690.53 705.31 690.74 704.51 692.24 703.49 694.16 701.36 697.74 697.74 703.29 697.42 703.6 695.06 707.59 694.72 708.12 694.62 709.01 694.27 709.58 693.72 709.86 693.01 711.07 692.52 711.91 692.07 712.97 691.8 713.6 691.43 714.46 691.22 715.71 690.97 717.17 690.78 718.3 690.75 718.46 690.44 718.98 689.9 719.91 689.38 720.78 688.57 722.14 688.23 722.84 685.84 727.71 685.32 728.79 683.4 732.39 681.53 735.88 682.58 736.22 687.32 738.55 686.81 740.21 684.93 744.08 681.12 751.66 675.28 763.34 675.07 763.88 670.81 772.1 669.97 773.46 666.05 782.51 663.47 788.71 659.2 798.91 655.62 798.61 654.84 800.22 640.02 830.21 650.61 834.79 650.07 844.65 650.01 845.87 649.58 854.8 649.64 855.17 663.84 852.39 663.76 853.12 663.42 854.72 663.45 855.85 662.63 863.15 662.86 864.85 664.12 871.2 665.32 870.97 666.32 870.73 669.5 869.99 670.73 869.8 678.02 868.72 686.59 866.82 687.04 866.73 687.04 866.74 689.24 866.29 689.57 866.22 696.34 864.83 703.85 863.44 705.63 863 707.38 862.56 710.17 861.86 715.3 861.42 722.92 859.97 731.28 858.11 745.88 854.78 753.63 853.12 753.65 853.34 754.14 857.16 754.22 857.76 754.93 863.24 755.06 864.4 755.4 867.11 755.63 868.85 756.22 873.54 756.42 875.11 756.5 875.69 756.72 877.43 752.35 877.86 752.54 880.34 753.23 888.98 753.77 895.81 753.91 897.56 754.3 902.53 754.38 903.55 755.07 912.22 755.95 923.51 755.98 923.82 756.28 927.55 764.35 926.93 764.36 926.93 764.44 927.84 764.46 928.09 765.11 936.1 765.72 943.54 765.77 944.13 767.83 943.95 771.06 943.67 774.16 943.39 797.15 941.34 797.16 941.44 798.87 959.37 799 960.74 796.53 964.98 795.56 968.18 795.68 970.6 791.22 971.41 780.02 973.42 779.98 973.43 770.22 975.18 769.98 975.22 755.89 977.75 755.33 977.85 748.91 978.96 744.49 979.73 742.08 980.15 740.91 980.36 733.41 981.66 732.42 981.84 722.69 983.56 714 985.09 713.86 986.65 713.77 987.36 713.11 993.71 712.07 1003.49 711.21 1010.64 710.72 1015.71 709.84 1023.29 708.95 1031.2 708.59 1034.55 708.15 1038.99 707.98 1040.15 707.82 1041.3 707.59 1043.42 707.43 1044.66 707.57 1046.11 707.6 1046.23 708.34 1047.24 710.34 1049.82 711.46 1048.97 712.82 1050.74 711.61 1052.08 711.99 1053.96 710.34 1055.27 709.49 1055.26 708.81 1056.77 708.72 1057 708.71 1057.16 708.73 1058.72 708.73 1058.78 708.74 1059.35 709.08 1060.82 709.51 1062.76 709.93 1063.33 711.85 1064.62 715.68 1067.17 718.52 1067.59 718.58 1067.88 718.67 1068.73 718.69 1068.92 716.82 1069.1 713.9 1069.36 709.6 1069.65 697.1 1070.88 696.54 1070.94 686.7 1071.91 654.28 1075.03 654.05 1075.05 642.19 1076.08 641.54 1076.13 633.64 1077.04 632.52 1077.2 630.49 1077.5 626.95 1078.03 626.85 1078.05 626.57 1078.08 615.87 1079.15 615.85 1079.15 613.94 1079.34 603.03 1080.44 602.49 1080.49 602.23 1080.52 600.69 1080.67 586.68 1082.01 583.86 1082.28 575.08 1083.18 572.09 1083.48 568.47 1083.84 568.42 1083.85 568.46 1084.02 568.93 1086.22 569.24 1087.89 569.89 1091.41 570.76 1096.13 570.78 1096.25 571.13 1098.15 571.86 1101.64 571.89 1101.78 572.75 1105.89 572.99 1107.14 573.29 1108.65 573.48 1109.63 573.67 1110.59 573.71 1110.67 573.72 1110.81 573.72 1110.83 573.72 1110.97 573.8 1114.12 573.81 1114.54 573.86 1116.7 573.87 1116.88 573.86 1117.29 573.77 1118.63 573.66 1120.38 573.62 1120.76 573.48 1122.7 573.44 1123.27 573.32 1124.88 573.31 1125.08 573.29 1125.34 573.21 1126.4 572.4 1130.86 572.11 1132.48 570.17 1140.14 569.73 1141.95 569.53 1142.75 569.02 1144.87 568.1 1149.8 567.11 1153.1 565.88 1155.67 565.16 1156.9 564.76 1157.78 564.04 1159.17 562.96 1161.31 559.21 1170.05 559.18 1170.14 557.88 1173.66 557.69 1174.15 556.55 1177.25 556.37 1177.7 555.86 1177.48 543.09 1172.02 543.08 1172.03 543.08 1172.05 543.06 1172.07 543.03 1172.13 542.96 1172.24 542.86 1172.42 542.69 1172.72 542.01 1173.87 540.17 1177.03 537.15 1182.2 534.55 1186.64 532.76 1189.73 532.01 1191.01 530.91 1192.89 529.06 1196.15 528.43 1195.91 527.84 1195.69 527.55 1195.58 525.02 1199.76 522.51 1204.1 522.33 1204.41 521.98 1205.01 518.03 1203.59 517.74 1204.35 517.05 1206.15 517.04 1206.16 516.4 1207.86 516.24 1208.26 516.21 1208.35 514.34 1213.24 514.27 1213.4 512.96 1216.12 512.63 1216.82 511.73 1219.23 511.02 1221.16 510.59 1222.34 510.01 1222.9 509.88 1223.02 Z" id="CALLAO" class="area" title="CALLAO"></path>

</svg>