<!--?xml version="1.0"?-->
<svg xmlns="http://www.w3.org/2000/svg" version="1.2" baseProfile="tiny" width="100%" height="100%" viewBox="0 0 800 1555" stroke-linecap="round" stroke-linejoin="round">

<path d="M 298.97 1018.11 296.93 1012.99 295.17 1014.1 292.16 1016.08 290.63 1016.46 290.37 1015.92 289.8 1016.11 289.04 1014.63 288.44 1014.37 287.48 1014.04 285.9 1013.83 285.09 1013.59 283.88 1012.75 283.3 1012.97 280.57 1012.98 280.22 1011.32 278.73 1011.07 277.54 1011.09 277.08 1010.48 276.02 1011.01 276.08 1012.1 275.7 1012.31 274.87 1012.36 274.59 1013.61 273.8 1014.86 273.05 1016.18 271.26 1013.61 270.03 1011.77 267.84 1013.3 267.27 1012.34 266.44 1012.41 265.8 1012.2 265.3 1012.04 264.04 1012.1 263.2 1011.82 262.5 1011.78 262.28 1010.29 244.41 1012 243.62 1015.06 242.97 1017.07 241.87 1018.41 240.99 1019.08 239.53 1019.59 238.28 1019.93 237.36 1020.08 236.3 1020.76 234.89 1021.95 232.77 1022.87 231.2 1023.36 229.28 1023.76 227.71 1023.53 226.21 1023.15 224.88 1022.53 224.31 1021.64 223.62 1020.51 222.44 1019.55 220.98 1019.2 219.22 1018.77 218.08 1018.26 216.58 1017.56 215.21 1016.89 213.98 1016.4 213.6 1016.26 245 939.48 245.03 939.45 246.33 937.42 242.98 934.1 229.47 920.77 192.96 884.76 185.34 877.09 173.4 865.45 169.61 861.61 167.71 859.26 52 892.51 51.86 892.4 51.24 891.63 50.24 891.32 49.16 891.86 48.08 891.94 47.54 891.09 47.46 890.24 48.62 889.16 47.31 887.7 44.53 885.61 41.83 883.68 40.29 882.06 39.83 881.29 39.6 880.14 38.59 879.21 37.28 878.52 36.82 878.98 36.05 878.59 35.74 878.36 35.35 877.74 35.43 876.97 35.35 876.28 34.35 875.82 33.12 874.89 31.42 873.66 30.11 872.88 28.72 872.04 26.71 871.65 25.02 871.65 23.63 871.65 22.16 872.73 21.33 872.31 21.32 872.74 21.12 873.07 20.69 873.18 20.18 873.18 20 872.88 20.29 872.5 20.25 872.21 20.1 871.99 19.65 871.76 19.15 871.68 18.65 871.64 18.22 871.68 17.96 871.79 17.49 871.74 17.27 871.59 17.19 871.19 16.92 871.11 16.75 870.8 16.7 870.37 16.57 870.1 16 870.08 15.29 870.09 14.73 869.8 14.25 869.63 13.98 869.75 14.3 870.12 14.2 870.33 13.77 870.92 13.38 871.22 12.57 871.3 12.16 871.59 11.88 871.76 11.54 871.96 11.27 872.1 10.86 872.23 10.47 872.36 9.96 872.57 9.57 872.57 9.15 872.46 8.45 872.45 8.04 872.41 7.76 872.3 7.32 872.22 7.08 872.11 6.42 871.27 5.55 870.34 5.31 870 4.87 869.9 4.46 869.75 4.17 869.67 3.99 869.48 3.69 869.05 3.26 868.04 3.06 867.43 3.02 867.17 2.98 866.71 3 866.24 3.1 865.7 3.27 865.34 3.88 864.4 4.44 863.76 4.82 863.55 5.27 863.35 5.51 863.29 6.04 863.37 6.41 863.55 6.8 863.59 6.95 863.38 7.05 863.11 7.44 863.01 7.63 863.19 7.96 863.6 8.2 863.16 8.66 863.32 9.06 863.54 9.35 863.47 9.61 863.43 10.04 863.19 10.41 862.95 10.66 862.88 10.9 862.74 11.12 862.53 11.37 862.36 11.95 861.96 11.92 861.61 11.91 861.52 11.71 861.48 11.66 861.47 11.57 861.4 10.63 860.63 10.39 860.47 10.04 860.12 10.01 859.83 10.26 859.58 11.14 859.35 11.35 859.26 11.87 859.14 12.2 858.81 12.08 858.35 12.11 857.96 12.17 857.37 12.36 856.96 12.83 856.94 13.16 857.2 13.64 857.78 13.87 857.88 14.16 857.83 14.47 857.59 14.73 857.24 14.97 856.78 15.1 856.29 15.18 855.77 15.22 855.39 15.22 854.92 15.18 854.44 15.06 853.84 14.81 852.95 14.42 852.06 14.16 851.68 13.85 851.39 13.63 850.9 13.54 850.57 13.42 850.03 13.39 849.75 13.38 849.49 13.36 848.88 13.4 848.25 13.46 847.96 13.49 847.71 13.6 847.18 13.75 846.12 13.82 845.35 13.81 844.78 14 844.47 13.92 844.17 14.08 843.96 14.18 843.57 14.15 843.06 14.08 842.46 14 841.94 13.72 840.8 13.47 839.67 13.32 839.27 13.06 838.07 12.82 837.37 12.4 836.59 12.03 836.15 11.23 836.05 10.96 835.98 10.76 835.87 10.53 835.45 9.77 835.1 9.21 834.86 8.7 834.62 8.05 834.29 7.76 834.14 6.8 833.8 6.57 833.72 6.26 833.6 5.92 833.41 5.59 833.16 5.38 832.89 5.17 832.44 4.98 832.21 4.65 831.84 4.46 831.53 4.37 831.32 4.2 830.94 4.12 830.57 4.06 830.16 3.96 829.31 3.88 828.9 3.89 828.29 3.71 827.92 3.66 827.54 3.66 826.93 3.71 826.52 3.38 826.29 2.97 826.22 1.98 825.91 1.6 825.57 1.43 825.26 1.02 824.57 1 824.16 1.14 823.72 1.28 823.51 1.43 823.3 1.78 823.05 2 822.81 2.41 822.25 2.7 822.05 3.16 822.12 3.4 822.27 3.82 822.2 4 821.29 4.2 821.06 4.69 821.02 5.06 821.2 5.55 821.37 6.03 821.33 6.59 820.59 6.95 820.3 7.22 820 7.3 819.56 7.62 819.25 7.92 819.01 8.37 819.01 8.86 819.12 8.95 818.83 8.98 818.53 9.03 817.78 9.06 817.17 8.96 816.57 8.6 815.89 7.82 814.88 7.45 814.69 7.17 814.73 6.65 814.98 6.23 814.86 5.82 814.82 4.9 814.94 4.42 814.82 4.08 814.37 3.43 813.47 3.47 813.02 3.66 812.54 3.3 812.27 2.77 811.92 2.61 811.44 2.52 811.2 2.52 810.88 2.71 810.52 3.14 810.39 3.26 810 3.14 809.56 3.46 809.39 3.82 809.24 4.08 809.16 4.44 809.02 4.24 808.57 4.07 808.12 4.09 807.87 3.51 807.24 3.26 806.77 3.2 806.22 3.43 805.77 3.64 805.67 4.12 805.67 4.46 805.97 4.65 806.19 4.83 806.35 5.26 806.98 5.5 807.1 5.95 807.1 6.18 807.21 6.63 807.3 6.89 806.88 7.35 806.73 7.73 806.54 8 806.67 8.28 806.67 8.66 806.71 9.07 806.49 9.47 806.61 9.75 806.91 10.26 807.17 10.6 807.51 11 807.69 11.41 807.59 11.81 807.33 12.09 806.98 12.28 806.77 12.47 806.38 12.66 806 12.9 805.85 13.17 806.22 13.43 806.52 13.78 806.64 14.25 806.68 14.5 806.75 14.94 806.76 15.37 806.57 15.85 806.42 16.54 806.02 16.82 805.77 17.14 805.26 17.39 804.88 17.7 804.51 18.14 804.25 18.32 803.88 18.33 803.44 18.54 803.03 18.57 802.77 18.53 802.51 18.83 802.14 19.16 801.81 19.6 801.67 19.77 801.32 20.12 801.11 20.38 801.18 20.74 801.22 20.96 801.04 21.38 801.51 21.8 801.82 22.35 802.02 22.66 802.06 22.97 802.24 23.27 802.43 23.57 802.59 23.89 802.66 24.24 802.93 24.45 803.38 24.63 803.56 24.9 803.73 25.35 803.91 25.52 804.31 25.75 804.53 26.13 804.66 26.96 804.6 27.36 804.45 27.83 804.55 28.32 805.11 28.7 805.34 29.35 805.53 29.65 805.57 30.01 805.35 30.26 804.94 30.75 804.84 31.01 805.17 31.22 805.36 31.63 805.05 32.05 805.18 32.44 805.48 32.94 805.63 33.3 805.79 33.5 805.93 33.66 806.42 33.29 807.34 32.86 808.04 32.79 808.27 32.88 808.69 32.78 809.11 32.54 809.61 32.43 810.01 33.08 811.59 33.92 812.75 34.07 813.06 33.65 813.71 33.63 814.16 33.89 814.51 34.82 815.17 36.14 816.19 36.86 816.61 37.38 816.86 37.72 816.93 38.2 816.82 38.44 816.71 39.51 816.76 40.35 816.57 41.4 816.17 42.11 816 42.56 815.96 42.84 816.28 42.98 816.9 42.9 817.32 42.35 818.03 42.04 818.7 42.18 819.48 42.55 820.08 42.85 820.41 43.53 821.11 43.67 821.43 43.69 821.93 43.88 822.4 44.22 822.86 44.39 823.1 44.57 823.34 44.8 823.83 44.72 824.3 44.86 824.73 45.04 824.9 45.39 825.27 45.81 825.56 46.36 825.89 46.39 825.89 46.85 825.85 47.14 825.51 47.49 825.22 47.91 824.93 48.32 824.78 48.66 825.01 48.84 825.19 49.05 825.64 49.26 826.49 49.26 826.79 49.28 827.06 49.21 827.88 49.22 828.27 49.11 828.69 49.14 829.17 49.74 829.65 50.8 829.96 51.53 830.07 52.57 830.17 53.76 830.17 54.04 830.21 54.39 830.25 54.47 830.25 54.77 830.22 55.07 830.22 55.1 830.22 55.54 830.32 56.04 830.42 56.34 830.49 56.76 830.57 57.19 830.65 57.53 830.71 58.04 830.8 58.26 830.82 58.58 830.84 59.02 830.91 59.43 830.98 59.61 831.03 59.92 831.11 59.93 831.11 59.93 831.07 59.84 830.54 59.61 829.17 59.58 828.99 59.57 828.9 59.81 828.85 59.81 828.8 59.76 828.33 59.75 828.21 59.73 828.08 62.29 827.68 62.32 827.93 62.22 827.95 59.94 828.25 59.97 828.4 60.06 829.03 60.06 829.03 60.03 829.03 60.01 829.04 60.02 829.07 60.02 829.11 60.06 829.38 60.18 830.22 60.32 831.15 61.37 831.12 61.84 831.08 61.87 831.08 62.27 831.14 62.74 831.12 63.2 831.12 63.46 831.12 63.57 831.13 63.78 831.15 64.03 830.9 64.28 830.66 64.66 830.42 64.92 830.26 65.4 830.13 65.45 830.08 65.49 830.05 65.51 830.02 65.68 829.88 65.25 829.11 65.33 829.06 65.4 829.18 65.42 829.22 65.78 829.81 65.84 829.79 65.93 829.88 66.12 829.82 66.05 829.66 66.17 829.6 66.15 829.54 66.12 829.49 65.89 829.01 65.75 829.11 65.68 829.04 65.74 829 65.51 828.49 65.55 828.47 65.56 828.46 65.57 828.45 65.81 828.95 66.06 828.83 66.04 828.79 66.02 828.75 65.83 828.36 65.84 828.35 65.88 828.33 65.89 828.32 66.13 828.74 66.17 828.73 66.2 828.78 66.25 828.85 66.08 828.98 66.06 828.99 66.02 829.02 66.33 829.55 66.54 829.4 66.71 829.36 66.79 829.39 66.89 829.34 66.93 829.31 66.89 829.26 66.78 829.1 66.57 828.79 66.6 828.78 66.66 828.75 66.66 828.75 67.01 829.23 67.19 829.17 67.19 829.07 67.2 829.02 67.2 828.95 67.3 829.01 67.32 829.03 67.37 829.02 67.5 829 67.57 828.93 67.54 828.88 67.45 828.76 67.13 828.31 67.03 828.37 66.96 828.29 67 828.26 67.05 828.21 67.25 828.05 67.29 828.07 67.3 828.07 67.35 828.04 67.36 828.03 67.3 827.98 67.3 827.98 67.43 827.9 67.44 827.95 67.4 827.96 67.46 828.01 67.33 828.12 67.25 828.19 67.2 828.23 67.25 828.33 67.24 828.35 67.24 828.36 67.46 828.64 67.64 828.86 67.85 828.72 68.11 828.47 68.22 828.24 68.28 828.15 68.4 827.96 68.47 827.86 68.57 827.65 68.7 827.27 68.94 826.94 69.08 826.95 69.25 826.95 69.64 826.96 70.1 826.99 70.32 827 70.55 827.01 70.52 827.29 69.6 827.26 69.53 827.26 69.51 827.26 69.5 827.18 69.33 827.16 69.3 827.39 69.2 827.38 69.22 827.17 69.14 827.18 69.11 827.18 68.98 827.29 68.94 827.37 69.02 827.39 69 827.53 68.98 827.61 68.87 827.57 68.85 827.76 68.79 827.95 68.9 827.99 68.92 828.04 68.95 828.07 68.91 828.1 68.84 828.14 68.75 828.19 68.88 828.43 69.05 828.48 69.15 828.6 69.26 828.63 69.45 828.77 69.58 828.77 69.71 828.74 69.84 828.72 69.87 828.72 69.91 828.6 69.87 828.53 69.91 828.44 70.03 828.42 70.08 828.49 70.02 828.59 70.01 828.69 70.19 828.66 70.27 828.56 70.51 828.54 70.79 828.51 70.89 828.73 70.9 828.96 71.38 828.96 71.39 829.04 71.32 829.06 71.33 829.12 71.06 829.13 71.06 829.04 70.94 829.04 70.71 829.01 70.73 829.25 70.76 829.51 70.72 829.74 71.05 829.79 71.03 829.92 70.69 829.96 70.69 830.51 70.69 830.51 71.68 830.47 71.72 830.65 70.92 830.67 70.9 830.77 70.84 830.9 70.64 830.88 70.59 830.99 71.06 831.19 71.02 831.31 70.49 831.1 70.46 831.48 71.12 831.76 71.08 831.85 70.4 831.6 70.35 831.73 70.92 832.2 70.86 832.29 70.24 831.89 70.24 832.01 70.18 832.15 70.16 832.2 70.08 832.32 69.88 832.3 69.9 832.54 70.23 832.59 70.44 832.62 70.65 832.65 70.69 832.87 70.46 832.85 70.43 832.72 70.26 832.74 70.2 832.75 70.2 832.96 70.24 833.09 70.41 833.36 70.45 833.58 70.44 833.75 70.59 833.74 70.62 833.74 70.77 833.75 70.81 833.7 71.15 833.12 71.88 832.4 71.97 832.5 71.17 833.29 70.89 833.78 70.89 833.86 71.23 834.22 71.14 834.43 71.11 834.5 71.54 834.68 71.56 834.69 72.01 834.89 72.28 834.77 72.25 834.69 72.21 834.61 72.19 834.56 72.03 834.63 72.01 834.56 72.13 834.44 72.01 834.15 72.04 833.95 72.12 833.85 72.05 833.76 72.21 833.58 72.41 833.76 72.13 834.11 72.29 834.41 72.3 834.6 72.37 834.66 72.4 834.68 72.42 834.66 72.53 834.53 72.54 834.28 72.57 834.25 72.62 834.21 72.7 834.23 73 834.32 73.11 834.35 73.15 834.32 73.17 834.31 73.12 834.27 73.09 834.25 73.17 834.15 73.14 834.12 73.05 834.04 73.12 833.94 73.24 833.98 73.24 833.98 73.28 833.95 73.3 833.92 73.34 833.88 73.38 833.85 73.57 833.98 73.53 834.1 73.97 834.39 73.95 834.59 73.78 834.68 73.66 834.58 73.47 834.41 73.48 834.46 73.5 834.52 73.51 834.58 73.52 834.61 73.28 834.8 73.26 834.82 73.27 834.84 73.28 834.86 73.31 834.9 73.35 834.97 73.33 835.09 73.27 835.11 73.18 835.14 73.14 835.15 73.11 835.16 73.02 835.21 72.99 835.37 72.99 835.82 72.91 836.09 72.96 836.33 72.88 836.77 73.05 836.99 73.22 837.03 73.39 837.06 73.72 837.2 74.13 837.38 74.86 837.5 75.13 837.54 75.67 837.59 76.21 837.57 76.6 837.57 76.82 837.56 77.08 837.56 77.07 837.22 77.04 836.93 77.09 836.73 77.11 836.66 77.21 836.5 77.21 836.48 77.14 836.37 77.13 836.36 77.12 836.34 77.1 836.31 77.08 836.28 77.06 836.28 76.93 836.23 76.9 836.23 76.81 836.2 76.72 836.17 76.5 836.1 76.44 836.08 76.28 836.01 76.19 835.97 76.19 835.95 76.18 835.9 76.17 835.84 76.16 835.79 76.6 835.53 76.63 835.39 76.78 835.4 76.73 835.02 76.72 834.97 76.72 834.95 76.65 834.96 76.58 834.97 76.43 834.98 76.42 834.95 76.42 834.93 76.42 834.91 76.71 834.88 76.71 834.84 76.7 834.78 76.69 834.71 76.62 834.72 76.52 834.73 76.42 834.74 76.41 834.69 76.41 834.64 76.25 834.66 76.25 834.62 76.24 834.58 76.24 834.54 76.24 834.5 76.35 834.48 76.44 834.47 76.47 834.46 76.46 834.39 76.42 834.19 76.41 834.15 76.41 834.14 76.4 834.11 76.51 834.06 76.6 834.46 76.9 834.42 76.9 834.42 76.89 834.3 76.88 834.12 76.88 834.07 76.88 834.06 76.88 834.02 77 833.99 77.04 834.37 77.26 834.37 77.28 834.47 77.28 834.52 77.2 834.54 77.16 834.55 77.13 834.56 77.14 834.61 77.14 834.65 77.14 834.66 77.1 834.66 76.88 834.66 76.88 834.8 77.14 834.81 77.13 834.97 77.05 834.98 77.02 834.98 76.97 834.98 76.95 834.99 76.87 835 76.89 835.2 76.98 835.17 77.11 835.11 77.12 835.18 77.21 835.15 77.23 835.19 77.24 835.23 77.15 835.25 77.13 835.26 76.95 835.31 77.02 835.34 77.12 835.38 77.14 835.4 77.19 835.42 77.3 836.14 77.34 836.35 77.51 836.27 77.65 836.27 77.75 836.22 77.8 836.18 77.82 836.08 77.83 836.03 77.96 835.89 77.92 835.82 77.79 835.6 77.81 835.47 77.83 835.41 77.85 835.29 77.72 835.33 77.78 835.03 77.95 835.01 77.98 834.9 78 834.84 78.03 834.74 78.21 834.64 78.13 834.02 78.13 833.87 78.14 833.87 78.24 833.89 78.3 833.9 78.31 834.02 78.31 834.14 78.39 834.61 78.54 834.64 78.59 834.75 78.64 834.87 78.63 834.9 78.61 834.98 78.6 835.03 78.7 835.04 78.69 835.3 78.57 835.28 78.53 835.5 78.5 835.66 78.49 835.7 78.42 835.76 78.3 835.85 78.27 835.87 78.16 835.98 78.15 836.03 78.15 836.07 78.14 836.16 78.13 836.18 78.1 836.21 78.12 836.25 78.13 836.29 78.13 836.3 78.15 836.36 78.18 836.48 78.29 836.47 78.42 836.46 78.51 836.45 78.61 836.24 78.75 835.66 78.78 835.55 78.91 835.58 78.67 836.38 78.63 836.52 78.5 836.62 78.46 836.79 78.46 836.82 78.5 837.05 78.63 837.2 78.65 837.23 78.69 837.28 78.93 837.62 79.51 837.7 80.27 837.69 80.88 837.5 81.46 837.27 82.61 836.75 83.16 836.26 83.18 836.25 83.99 835.86 84.44 835.56 84.84 835.42 85.11 835.29 84.28 833.61 84.15 833.55 84.15 833.54 84.06 833.52 83.95 833.47 83.67 833.35 83.59 833.2 83.48 833 83.75 832.19 83.77 832.19 84.26 832.29 84.4 832.29 84.46 832.29 84.49 832.29 84.5 832.29 84.69 832.29 84.76 832.72 84.92 832.75 84.92 832.89 84.75 832.89 84.79 832.94 85.03 833.27 84.58 833.59 85.03 834.58 85.08 834.69 85.13 834.79 85.32 835.21 85.9 834.76 86.08 834.65 86.58 834.32 87.34 833.64 88.07 833.08 89.34 832.11 89.87 831.47 90.47 830.83 91.33 830.15 91.4 830.08 91.84 829.6 92.46 829.04 92.75 828.57 92.78 828.09 92.79 827.86 92.55 827.45 92.54 827.43 92.42 827.15 92.24 827.04 92.09 826.85 91.96 826.69 91.8 826.57 91.59 826.43 91.33 826.3 91.22 826.22 91.08 825.92 91.08 825.9 91 825.83 90.85 825.7 90.75 825.48 90.67 825.26 90.48 825.19 89.98 825.31 89.96 825.24 89.94 825.2 89.93 825.16 89.86 824.97 89.84 824.91 89.82 824.86 89.82 824.85 89.77 824.72 90.04 824.59 90.08 824.56 90.1 824.56 90.43 824.15 90.62 823.92 91 823.8 91.4 823.64 91.97 823.34 92.18 823.25 92.29 823.21 92.34 823.19 92.68 823.57 92.99 824.12 93.39 824.5 93.46 824.57 93.86 824.91 94.29 825.07 94.74 825.05 95.03 825.14 95.31 825.29 95.55 825.41 95.74 825.4 95.97 825.13 96.29 824.75 96.52 824.49 97.08 823.85 97.86 822.92 98.29 822.44 98.62 822.07 99.05 821.52 99.07 821.5 98.72 821.14 98.48 820.88 98.13 820.49 97.08 819.35 96.08 819.29 96.07 819.13 96.07 819.1 96.06 819.05 97.2 819.14 98.01 819.99 98.07 820.05 98.78 820.79 99.83 819.74 100.92 818.36 100.99 817.88 101.28 817.25 102.13 816.46 102.61 816.06 102.97 815.19 103 815.1 103.16 814.21 104.11 812.55 104.6 811.14 105.45 809.3 105.68 808.36 105.76 808.04 106.17 807.15 106.31 806.86 106.5 806.34 106.61 805.95 106.74 805.56 107.25 804.47 107.5 804.12 107.71 803.67 107.76 803.42 107.13 803.24 106.8 803.15 105.26 802.73 105.29 802.63 105.04 802.57 105.12 802.3 105.13 802.25 105.39 802.33 105.4 802.28 108.33 803.09 109.11 801.55 109.41 800.89 109.67 800.33 109.93 799.55 110.22 798.89 110.59 798.31 111.51 796.77 111.74 796.31 111.83 796.13 111.84 796.11 112.04 795.7 112.06 795.65 112.06 795.64 112.09 795.59 112.26 795.24 112.29 795.18 112.37 794.99 112.54 794.77 112.82 794.18 112.86 794.08 112.94 793.85 112.96 793.8 113.01 793.64 113.23 793 113.37 792.42 113.63 791.63 113.76 791.14 113.77 791.02 113.8 790.69 113.91 790.41 113.99 789.75 114.03 789.57 114.17 788.9 114.18 787.83 114.18 787.8 114.19 787.7 114.22 786.73 114.22 786.6 114.26 785.21 114.09 783.08 113.92 780.54 113.9 778.62 113.89 777.97 113.55 774.97 113.12 772.63 112.69 769.84 112.55 767.38 112.49 764.79 112.46 763.61 112.44 762.82 112.47 762 112.48 761.74 112.55 760.33 112.66 759.34 113.03 758.22 113.38 757.31 113.55 756.57 113.41 756.23 113.1 756.09 112.96 756.03 112.83 755.97 112.86 755.74 113.32 755.63 113.43 755.43 113.58 755.16 113.6 755.13 113.61 755.12 113.66 755.03 113.98 754.34 113.92 753.82 113.92 753.8 113.85 753.78 113.23 753.54 112.81 753.37 113.43 753.06 113.72 752.6 113.46 752.06 113.03 751.63 113.09 750.92 113.55 750.46 113.72 749.32 113.69 748.12 113.38 747.97 112.97 747.94 112.42 747.81 111.99 747.71 112.04 747.37 112.58 747.48 112.97 747.58 113.23 747.6 113.66 747.43 113.7 746.77 113.71 746.66 113.79 746.33 113.94 745.75 114.12 744.87 114.3 743.91 114.36 743.62 114.61 742.53 114.61 741.81 114.64 741.2 114.79 740.14 114.8 739.32 115.1 738.21 115.17 737.96 115.36 737.31 115.31 736.71 115.55 735.99 115.77 735.53 116.01 735.03 116.14 734.55 116.5 733.85 116.81 733.54 116.86 733.4 116.94 733.18 116.97 733.02 117.01 732.8 117.35 732.7 117.6 732.46 117.7 732.25 117.68 731.77 117.96 731.69 118.25 731.62 118.53 731.38 118.91 730.89 118.97 730.37 119.23 730.25 119.51 730.07 119.74 729.81 119.89 729.45 119.77 729.06 120.05 728.96 120.47 728.73 120.68 728.39 120.68 728.37 120.73 728.18 120.83 727.73 121.28 726.97 121.39 726.23 121.49 725.2 121.47 724.29 121.16 723.42 121.19 722.99 121.1 722.64 121.05 722.42 120.86 722.32 120.57 722.16 120.34 722.03 119.36 721.93 118.51 721.82 117.65 721.88 116.94 721.91 116.57 721.74 116.11 721.6 116.26 720.98 117.19 721 117.96 721.05 118.77 721.11 119.46 721.16 120.21 721.15 120.84 721.03 120.95 720.77 121.31 719.91 121.4 719.7 121.64 719.32 121.81 719.14 121.94 719 122.18 718.65 122.68 715.21 122.57 711.11 122.2 709.48 121.25 707.54 120.72 706.19 120.13 704.78 120.02 703.55 119.96 701.97 119.72 700.38 119.66 698.97 119.66 696.56 119.66 694.98 119.9 693.22 120.07 691.51 120.19 690.34 120.19 689.22 120.19 688.34 120.19 687.4 120.19 685.94 120.31 684.82 120.13 683.88 120.02 682.83 119.72 680.83 119.43 679.24 119.19 678.19 118.78 676.9 118.55 675.9 118.31 674.31 118.2 673.78 117.78 672.73 117.2 671.08 116.84 669.67 116.38 668.38 115.61 666.33 114.97 664.74 114.44 663.63 113.79 662.69 113.15 661.57 112.44 660.34 111.8 658.93 111.33 657.87 111.03 656.93 110.62 655.93 110.03 654.58 109.68 653.94 109.21 652.82 108.68 651.88 108.33 651.06 107.8 650 106.86 648.6 104.66 645.86 104.48 645.52 104.07 645.13 103.62 644.27 103.45 643.78 102.95 642.93 102.69 642.52 102.36 642.01 101.83 641.34 101.26 640.55 101.06 640.02 100.74 639.66 100.45 639.16 100.09 638.42 99.69 637.77 99.31 637.24 98.91 636.76 98.78 636.48 98.29 636.06 98.03 635.69 97.75 635.5 97.09 634.9 96.86 634.58 95.71 633.54 95.32 633.14 95.15 632.69 94.77 632.47 94.4 631.98 93.7 631.38 93.28 630.93 92.54 630.33 91.03 629.25 90.37 628.63 89.66 628.16 89.07 627.28 88.72 626.25 88.65 626.18 88.43 625.7 88.08 624.7 87.9 624.29 87.05 622.86 86.49 622.63 85.83 622.24 85.34 621.77 85.07 621.51 84.67 621.26 84.54 621.18 83.85 621.08 83.22 621.02 82.66 620.78 82.6 620.36 83.62 619.93 84.48 619.73 85.14 619.4 85.4 618.54 85.31 617.72 85.3 617.65 84.91 616.59 84.48 615.83 83.88 614.78 83.62 614.65 83.32 614.32 82.1 613 81.51 611.94 79.96 610.59 78.6 609.5 77.98 608.64 77.12 607.58 76.52 606.59 76 605.6 76 604.58 76.23 603.33 76.72 601.4 76.66 600.26 75.87 599.36 75.5 598.71 74.97 597.91 74.18 597.12 73.22 595.93 72.27 594.88 71.41 593.82 70.32 593.06 69.13 592.27 68.04 591.84 67.19 591.41 66.56 590.69 65.73 589.99 65.2 589 65.01 587.65 64.68 585.64 64.28 583.89 63.42 582.3 62.86 581.15 62.4 580.29 61.87 579.27 61.41 577.72 60.72 576.33 59.99 575.24 59.59 574.55 59.46 574.12 59.3 573.82 59 573.49 58.37 572.83 57.78 572.11 57.12 571.31 56.46 570.36 54.72 568.84 54.27 568.49 53.84 568.11 53.47 567.82 53.1 567.44 52.73 567.14 52.51 566.92 51.99 566.28 51.52 565.86 51.34 565.49 50.92 565.04 50.64 564.43 50.33 563.87 49.96 563.41 49.8 563.2 49.42 562.48 49.04 561.94 48.96 561.65 48.68 561.28 48.41 560.68 48.17 559.76 48.07 559.26 47.91 559 47.71 558.67 46.97 557.62 46.33 556.84 45.96 556.21 45.35 555.35 45.31 555 45.11 554.55 44.78 554.07 44.59 553.66 44.32 553.4 43.68 552.51 43.23 552.06 42.82 551.63 42.56 551.27 42.22 550.92 42.02 550.72 41.63 550.37 41.26 549.81 40.98 549.51 40.82 549.16 40.43 548.65 40.25 548.24 39.88 547.75 39.52 547.2 39.11 546.75 38.62 546.23 38.31 545.92 38.01 545.52 37.8 545.29 37.47 545.04 37.06 544.67 36.78 544.43 36.45 544.16 36.26 543.86 35.88 543.6 35.6 543.19 35.24 542.8 34.95 542.63 34.04 541.51 33.76 541.06 33.16 540.53 32.73 540.19 32.12 539.45 31.55 538.86 31.24 538.62 31.15 538.36 30.71 538.07 30.48 537.84 30.04 537.27 29.78 537.08 29.29 536.48 27.99 535.14 27.83 534.87 27.25 534.24 26.49 533.59 25.66 532.89 25.03 532.32 24.54 531.81 24.08 531.5 23.8 531.24 22.86 530.52 22.35 530.02 22 529.94 21.51 529.77 21.27 529.38 21.19 528.95 21.12 528.42 20.92 527.93 20.87 527.81 20.84 527.79 20.39 527.14 19.92 526.52 19.57 525.95 18.71 525.21 18.14 524.87 17.69 524.64 17.48 524.6 17.06 524.84 16.73 525.07 16.52 525.13 16.07 525.38 15.81 525.53 15.56 525.57 15.5 525.55 15.46 525.51 15.44 525.45 15.44 525.39 15.45 525.34 15.45 525.29 15.56 525.17 15.77 525.03 16.05 524.87 16.18 524.82 16.28 524.76 16.34 524.72 16.4 524.67 16.47 524.62 16.51 524.56 16.52 524.48 16.5 524.43 16.45 524.44 16.38 524.47 16.25 524.48 16.22 524.48 16.2 524.45 16.17 524.4 16.17 524.38 16.17 524.35 16.18 524.28 16.18 524.15 16.17 524.13 16.22 523.97 16.6 523.92 16.95 523.72 17.1 523.35 16.87 522.82 16.13 522.21 15.73 521.92 15.34 521.59 14.93 521.12 14.6 520.55 14.31 520.1 14.16 519.79 14.05 519.55 13.7 519.03 13.62 518.79 13.37 518.1 13.09 517.52 12.89 517.25 14.76 517.19 14.77 517.19 18.13 517.25 22.63 516.44 27.31 514.84 32.25 511.67 35.98 508.23 38.89 504.74 41.01 501.95 47.1 493.95 48.29 492.39 53.53 484.41 56.19 477.7 59.83 471.04 65.2 467.62 69.64 467.78 76 470.97 85.14 474.47 92.91 477.79 97.66 481.95 104 488.1 107.17 490.68 113.35 492.56 118.72 494.9 123.89 497.1 134.02 502.88 139.14 511.18 142.48 517.89 146.28 520.61 150.81 524.44 154.17 529.39 157.14 532.16 162.93 532.77 169.42 533.69 174.78 534.29 178.99 534.32 183.06 532.72 183.17 529.65 183.03 526.11 181.86 522.56 180.21 520.11 178.47 518.05 176.89 516.07 175.71 513.86 173.41 511.33 174.04 509.8 175.65 507.45 177.17 504.71 178.99 501.28 179.83 496.67 180.07 490.28 180.52 483.99 181.15 480.35 180.38 476.51 181.22 471.8 183.15 467.29 182.38 463.35 180.3 460.68 179.91 460.18 175.23 458.18 170.86 456.28 168.77 454.89 167.64 450.63 168.13 448.29 170.15 445.36 171.96 443.11 174.69 438.41 176.51 434.49 178.23 432.64 181.75 428.53 185.88 423.94 188.1 420.12 189.93 416.3 190.75 412.28 191.39 407.07 192.8 404.96 195.38 401.83 196.89 400.91 198.67 399.81 202.51 397.48 208.2 395.09 212.84 393.23 217.33 390.83 221.74 388.34 223.39 387 225.19 385.54 229.05 382.65 232.01 381.02 236.15 379.41 236.58 379.25 240.1 377.62 243.1 375.43 243.53 374.88 245.21 372.75 245.79 372.17 246.66 371.3 250.35 367.61 252.69 364.4 255.65 363.09 258.92 362.64 261.56 361.8 263.42 359.84 265.51 356.71 266.33 354.83 268.81 353.12 271.06 351.72 274.5 350.72 276.75 350.09 282.88 351.02 286.3 352.22 290.34 355.79 293.2 358.02 295.97 361.42 298.99 362.78 301.85 361.58 305.32 359.44 309.09 356.8 312.71 353.76 316.57 350.39 316.63 346 315.14 340.7 314.2 338.43 309.63 333.86 302.59 327.77 299 321.51 294.42 318.83 288.3 318.41 285.24 317.82 283.14 316.11 281.48 313.61 279.99 311.16 278.84 308.85 278.67 306.19 278.36 304.7 277.58 302.8 276.87 301.22 277.01 300.44 277.12 299.89 278.49 297.62 279.55 295.19 280.28 292.83 280.55 290 280.33 287.17 279.95 284.18 279.65 282.36 279.07 278.52 277.77 277.63 274.82 276.74 270.2 275.45 268.29 274.81 264.94 274.54 261.52 273.73 258.97 272.38 256.83 270.79 255.33 268.81 254.47 266.44 254.17 264 253.64 260.61 255.06 258.78 257.07 256.14 257.89 254.08 258.61 251.04 258.53 248.58 258.26 244.35 259.49 240.42 260.73 235.32 261.87 229.72 264.6 224.04 269.12 220.63 274.92 219 278.5 219.22 285.59 219.84 293.35 221.2 303.6 224.42 311.85 228.81 320.04 235.86 325.74 238.45 333.52 239.2 340.1 239.35 348.29 237.93 353.99 236.5 357.7 234.26 363.36 230.45 368.42 228.34 372.82 226.8 376.92 224.86 379.14 222.13 381.45 219.59 383.06 218.12 383.87 215.57 383.8 212.42 382.63 208.97 380.86 205.52 380.49 201.58 380.71 198.44 381.93 195.4 383.53 194.43 386.23 194.54 388.52 194.66 391.42 194.39 393.12 193.61 394.73 190.77 397.46 184.81 399.47 183.15 402.28 180.22 404.99 177.98 408.3 175.94 410.82 172.02 412.03 170.36 414.34 168.8 417.14 168.33 419.73 168.35 422.12 169.06 424.21 168.87 425.93 166.43 427.05 162.7 428.67 159.37 430.09 157.41 432.39 155.56 434.3 154.49 436.1 154.01 438.2 152.55 441.01 150.8 443.11 149.24 445.42 147.39 449.23 145.26 454.22 144.7 457.42 144.14 459.93 141.89 460.74 140.23 461.85 138.17 463.26 136.51 465.16 135.64 465.97 134.17 466.88 132.99 467.92 131.9 468.25 130.88 468.26 129.3 467.64 127.41 467.01 125.76 466.23 123.55 466.05 122.32 465.85 120.87 466.19 118.35 467.24 116.16 468.06 113.02 468.8 109.72 469.54 106.81 470.35 104.84 470.94 102.2 471.15 99.88 471.17 96.92 471.83 94.97 472.99 92.97 473.38 91.59 474.16 90.58 475.25 90.15 476.4 89.4 476.99 87.96 477.51 86.45 478.8 85.02 480.21 84.21 482.25 83.47 483.6 82.34 485.15 80.28 486.25 78.15 487.68 75.2 488.53 72.81 489.32 68.79 490.24 65.9 492.5 61.95 494.37 59.13 495.08 57.69 495.87 54.86 496.02 51.4 496.05 48.56 495.87 45.61 496.19 43.74 497.2 41.19 498.91 39.53 499.82 38.26 499.93 36.29 499.75 34.42 499.16 32.75 498.07 31.17 497.79 29 497.61 26.44 497.92 24.38 498.23 23.01 499.05 19.98 499.05 19.96 500.86 18.99 504.25 18.13 507.35 17.17 509.96 15.71 511.26 14.54 513.57 13.28 516.26 12.61 518.96 12.53 522.75 12.76 526.63 12.88 529.33 12.41 531.14 10.95 532.95 8.31 534.47 5.27 535.78 3.31 537.78 2.24 539.78 1.67 542.68 1 544.99 1.43 546.57 1.72 548.95 2.52 550.84 3.32 551.93 4.41 552.22 6.08 552.01 7.95 550.89 10.4 550.58 12.17 551.06 14.83 552.04 17.29 552.82 19.46 554.8 20.85 557.69 21.66 559.58 22.17 562.37 22.48 565.27 22.11 568.26 21.64 572.46 20.78 575.85 20.02 580.35 18.58 583.75 17.52 586.76 15.67 589.46 14.51 590.86 14.03 592.55 14.14 595.44 15.14 598.63 16.05 601.02 16.07 602.91 16.08 605.3 16.49 607.89 18.08 609.57 19.96 610.35 21.94 612.03 24.21 613.81 25.99 615.7 27.09 618.19 27.89 620.48 28.4 624.37 27.54 628.77 26.59 630.16 26.99 632.64 29.86 634.41 32.83 636.98 36.58 639.15 39.06 640.73 41.33 642.11 43.31 642.8 45.08 645.48 46.28 646.57 47.47 648.06 49.15 650.84 51.14 653.62 52.83 655.5 54.02 656.38 56.19 657.47 58.46 658.95 60.64 660.82 63.11 662.21 64.3 663.9 65.49 664.49 66.58 667.36 68.96 669.26 69.46 672.04 70.17 675.72 71.67 678.11 72.97 678.99 74.74 681.17 76.43 684.55 78.12 689.53 80.32 692.61 81.43 695.4 81.94 698.49 82.65 701.25 82.59 702.74 82.8 704.32 84.98 705.81 86.36 708.49 87.76 711.08 88.76 713.17 89.76 715.85 91.55 716.74 92.93 718.33 93.93 720.51 94.92 721.7 96.31 723.09 97.6 725.67 98.5 727.56 99.3 728.25 100.58 728.53 104.13 728.69 108.75 728.97 112 729.35 114.07 730.84 115.65 732.92 117.34 735.01 117.84 737.1 118.64 739.19 119.84 740.47 121.22 741.65 123.49 742.44 124.98 743.73 126.75 745.21 128.53 746.9 129.63 748.49 130.33 750.88 131.13 753.06 132.43 756.04 133.82 758.92 135.51 761.41 136.52 763.8 137.72 764.39 138.01 766.28 139.11 769.06 140.8 770.65 141.79 773.44 142.89 776.42 143.8 780 145.4 782.89 146.6 785.18 147.11 787.16 148.2 788.85 150.08 790.83 152.16 791.61 153.84 792.99 156.5 794.76 159.86 795.36 160.94 795.75 161.64 796.53 164 797.41 166.57 798.08 169.62 799 173.16 798.23 177.42 798.13 178 794.99 181.51 793.79 181.74 790.8 182.19 787.56 182.64 784.45 182.62 781.33 182.84 780.69 182.95 777.62 183.52 776.35 184.17 775.82 184.45 774.6 186.68 773.63 189.39 773.22 191.15 773.13 191.51 770.96 194.21 767.71 196.55 765.42 198.89 763.11 202.77 760.34 206.06 758.88 208.41 758.14 211.35 757.4 214.77 757.14 217.36 757.12 220.43 757.82 223.86 758.4 225.75 759.22 228.24 759.44 230.48 758.59 232.48 757.14 234.48 755.93 236 753.75 240 753.13 242.12 753.36 244.36 753.7 246.73 753.2 249.44 751.99 250.96 750.67 252.49 748.02 253.77 745.5 255.05 742.73 256.92 739.25 258.19 736.73 259.59 735.28 260.4 733.6 261.93 732.39 263.92 731.52 265.53 730.93 266.63 729.35 269.21 727.54 271.56 725.97 273.68 724.52 275.55 723.2 276.61 721.88 276.95 720.68 277.3 719.35 278.11 717.43 279.75 713.8 283.86 712.24 285.62 710.19 287.73 708.26 288.66 706.1 289.47 704.05 291.34 702.37 292.98 699.96 294.62 698.28 295.43 697.43 297.2 697.29 299.32 696.43 302.26 695.97 303.47 695.58 304.5 695.2 306.39 694.95 308.04 693.63 309.09 692.3 310.38 690.26 311.66 688.69 313.07 686.88 314.47 685.68 315.64 683.87 318.11 682.3 319.98 680.49 321.74 678.56 323.26 676.76 323.96 675.2 324.65 674.23 325.95 673.86 327.6 673.85 328.89 673.59 331.25 674.05 334.32 674.87 336.1 677.72 339.66 679.98 341.56 682.6 343.35 684.15 344.66 685.69 346.56 687.47 348.7 688.9 350.36 689.85 351.67 690.91 353.09 691.86 355.1 693.04 357.47 693.62 359.13 693.96 361.96 693.94 365.27 693.92 367.15 693.67 368.8 692.94 371.28 692.68 374.11 692.54 376.35 692.41 378.47 693.35 380.72 694.88 384.51 695.7 386.4 695.97 387.43 696.63 389.95 698.05 392.2 699.12 393.98 699.71 395.28 700.89 396.71 701.72 398.37 702.07 399.78 702.41 402.15 702.75 404.27 703.46 406.64 704.28 408.53 704.87 409.84 706.17 411.5 707.12 413.04 708.55 414.35 709.97 416.24 711.5 419.44 712.09 420.98 712.68 422.87 713.15 423.82 713.97 426.3 715.16 427.37 716.47 428.21 717.3 429.51 717.29 430.69 717.16 431.76 716.42 432.88 715.93 433.63 715.35 434.1 714.59 434.52 714.23 435.44 714.04 436.69 713.94 437.44 713.98 438.25 714.59 440.23 714.96 442.03 715.05 443.49 715.28 444.82 715.6 445.91 715.88 446.85 716.02 447.6 716.12 448.08 716.2 449.4 716.1 450.68 715.7 451.95 715.16 453.79 714.87 455.11 714.81 456.71 714.46 458.31 714.02 459.77 713.34 461.23 713.19 462.41 713.13 463.92 713.4 465.29 713.54 466.95 713.37 469.45 713.27 471.05 713.21 472.84 713.48 474.59 713.76 476.25 714.08 477.9 714.74 479.18 715.26 480.08 716.35 481.32 717.73 483.26 718.33 485.58 718.41 488.03 718.19 491.76 717.21 495.72 715.75 498.83 714.77 501.75 713.93 504.38 713.39 506.03 712.7 509.14 712.4 511.03 711.91 512.25 711.23 513.47 710.94 514.65 710.93 515.06 710.93 515.97 711.1 517.96 711.43 519.28 711.66 520.89 711.69 523.2 711.15 524.8 710.32 526.64 709.64 527.86 708.19 530.64 706.93 532.8 706.11 533.45 704.86 533.96 703.32 534.66 702.12 535.46 701.87 536.54 702.1 537.91 702.18 539.28 701.41 540.6 700.54 541.86 699.28 543.08 697.59 545.05 695.76 546.98 692.81 549.88 691.27 551.81 689.38 553.78 688.42 555.37 687.44 557.4 686.28 559.32 684.92 561.44 683.14 563.22 680.49 565.14 677.74 567.15 675.01 568.17 673.42 568.91 671.6 569.42 669.91 570.11 667.85 571.04 665.54 572.02 662.57 572.85 656.23 572.89 652.39 573.34 648.91 573.79 646.03 574.95 642.67 575.75 639.79 577.03 638.64 578.22 637.86 579.02 636.88 581.37 636.25 586.21 637.31 588.81 638.97 590.83 640.39 592.61 641.7 594.03 642.05 595.45 642.14 595.82 642.63 597.82 643.09 599.94 643.56 601.84 646.54 603.16 648.69 604.23 650.24 605.9 652.26 608.15 653.91 611.35 654.73 613.48 655.55 616.08 656.13 619.16 656.59 620.69 658.02 622 659.21 623.43 660.03 625.32 662.05 627.81 663.71 630.19 664.77 632.43 666.19 635.4 667.35 639.53 668.3 641.78 669.59 644.51 669.94 646.52 670.04 648.99 669.9 651.83 670.12 654.54 671.3 656.56 672.84 659.52 674.84 663.54 677.33 667.1 679.46 670.07 681.12 672.91 683.38 675.64 685.16 677.43 685.98 680.15 686.08 682.86 686.1 684.87 686.09 686.76 686.07 689.59 685.7 690.95 685.58 691.39 685.25 692.18 685.13 693.36 685.11 693.49 684.12 695.14 681.3 699.8 674.62 710.87 674.14 711.72 666.72 724.8 661.35 734.6 656.64 741.56 650.24 744.76 644.22 747.4 639.89 752.58 637.72 760.11 633.39 765.79 629.51 768.96 614.25 777.32 609.26 781.93 605.25 787.22 602.34 790.34 600.33 793.5 598.11 800.38 596.39 804.25 594.32 810 593.46 814.64 594.26 821.59 596.49 827.29 597.07 832.4 597.15 837.59 596.25 847.33 596.09 848.98 595.87 851.42 594.13 857.26 590.28 864.69 587.76 870.39 584.11 878.66 579.82 881.4 575.53 882.95 571.24 885.23 567.5 887.97 564.11 888.79 560.28 889.89 554.99 890.62 554.21 890.91 554.22 890.68 552.3 891.62 547.72 893.88 547.32 894.02 539.44 896.8 537.92 896.82 535.37 896.91 529.56 899.34 524.85 901.97 522.86 902.66 519.39 903.86 516.66 906.77 516.38 911.58 515.15 916.94 510.73 922.12 503.34 925.72 496.32 929.56 488.61 934.17 480.32 940.57 468.45 944.12 439.37 951.68 439.31 951.68 432.31 951.77 424.53 955.31 419.76 958.21 411.32 967.49 403.22 977.47 401.7 978.65 393.71 984.82 388.06 986.64 384.39 987.83 379.12 988.66 377.24 988.96 374.7 991.71 370.65 1001.67 365.98 1011.84 360.16 1017.14 351.89 1020.63 342.07 1021.79 330.57 1020.37 325.95 1019.26 325.66 1019.2 325.25 1019.47 324.38 1019.33 323.64 1019.05 321.61 1018.63 320.35 1017.91 315.43 1017.18 312.95 1018.98 311.57 1018.67 309.56 1018.84 307.35 1016.8 306 1015.28 304.45 1016.15 301.86 1017.55 298.97 1018.11 Z" id="ANCON" class="area" title="ANCON"></path>
<path d="M 345.28 1108.54 347.7 1110.8 348.33 1110.19 349.3 1111.02 350.22 1111.8 352.45 1113.69 352.48 1115.62 352.52 1118.6 352.55 1119.94 351.93 1121.91 351.71 1123.4 351.78 1124.07 352.07 1124.12 351.96 1126.25 352.93 1129.1 353.44 1130.81 353.98 1132.6 353.59 1132.87 352.85 1133.39 351.2 1134.46 349.35 1135.19 347.63 1132.54 346.04 1133.52 344.29 1131.08 342.88 1132.01 342.99 1132.21 341.55 1133.41 342.98 1135.58 340.64 1136.88 342.76 1139.99 344.77 1141.91 346.09 1142.48 346.34 1142.49 347.68 1145 349.98 1147.74 351.47 1145.88 352.12 1144.99 352.41 1144.8 352.74 1144.79 353.56 1144.95 354.16 1144.82 355.19 1143.99 355.43 1143.86 355.66 1143.86 356.3 1144.19 356.59 1144.27 357.31 1144.35 357.72 1144.37 359.7 1145.29 360.63 1145.97 360.94 1146.29 361.06 1146.57 361.2 1146.96 361.59 1147.81 362.03 1149.01 362.08 1149.48 362.05 1150.2 362.04 1150.37 361.99 1150.81 361.83 1151.46 361.62 1152.06 361.34 1152.54 361.22 1152.96 361.2 1153.23 361.32 1153.58 361.55 1154.09 361.59 1154.18 361.76 1154.53 361.75 1154.84 361.74 1155.24 361.76 1155.72 361.83 1156.05 361.88 1156.27 362.01 1156.72 362.23 1157.23 362.24 1157.25 362.54 1157.61 362.82 1157.85 363.31 1159.07 363.15 1159.31 362.93 1159.45 362.39 1159.59 361.88 1159.72 361.4 1159.87 360.92 1160.07 360.21 1160.51 359.51 1160.98 359.33 1161.19 359.31 1161.53 359.06 1162.26 358.88 1163.16 358.67 1163.63 358.4 1164.13 358.09 1164.32 357.56 1164.56 357.03 1164.75 356.42 1165.06 356.29 1165.21 356.22 1165.53 356.2 1166.08 356.3 1166.65 356.39 1166.98 356.27 1167.06 356.02 1167.34 355.6 1167.81 355.17 1168.44 355.04 1168.64 354.99 1169.06 354.87 1169.58 354.62 1170 354.46 1170.15 354.19 1170.18 353.83 1170.26 353.35 1170.34 352.86 1170.5 352.56 1170.71 352.26 1170.98 351.61 1171.4 351.11 1171.49 350.86 1171.57 349.8 1172.84 348.98 1173.56 348.34 1174.04 347.86 1174.6 347.52 1175.17 347.28 1176.34 347.16 1176.95 347.21 1177.48 347.28 1178.04 346.01 1178.53 345.33 1178.67 344.82 1178.84 344.35 1179.17 343.91 1179.49 342.99 1180.19 342.21 1180.69 340.77 1181.94 339.92 1182.77 339.37 1183.41 339.04 1184.04 338.64 1184.98 338.4 1185.94 338.16 1186.6 337.52 1187.82 337.3 1188.17 336.46 1189.09 334.94 1190.1 333.55 1190.19 332.72 1190.14 332.42 1190.2 332.06 1190.43 331.75 1190.88 330.91 1191.97 330.2 1192.97 329.52 1193.7 327.58 1194.35 326.39 1194.86 325.65 1195.22 325.37 1195.49 325.16 1195.95 325.03 1196.4 325.02 1196.95 325.02 1197.69 324.87 1198.04 324.58 1198.35 324.18 1198.68 323.67 1198.99 323.46 1199.04 323.27 1199.04 323.1 1199.1 322.84 1199.38 322.34 1200.05 321.84 1200.74 321.47 1201.48 320.99 1202.72 320.83 1203.5 320.88 1204.72 314.24 1205.83 312.94 1205.66 313.94 1203.03 312.67 1201.93 311.96 1195.84 309.56 1195.85 309.32 1186.11 311.26 1186.06 311.09 1180.31 290.88 1189.45 290.92 1190.2 287.3 1190.98 285.64 1188.8 283.31 1185.76 282.8 1184.53 282.49 1183.47 282.31 1182.05 282.25 1181.01 282.41 1179.17 284.83 1157.1 286.26 1153.53 288.34 1150.61 291.9 1147.1 295.22 1143.86 296.41 1143 298.13 1141.86 299.49 1141.49 301.49 1141.1 304.09 1140.96 308.88 1141.47 311.81 1141.45 313.59 1140.95 316.84 1139.78 322.73 1137.48 325.28 1135.22 326.59 1133.55 328.07 1130.26 329.75 1125.51 330.29 1124.71 334.38 1119.75 337.28 1116.76 345.28 1108.54 Z" id="MI_PERU" class="area" title="MI PERU"></path>
<path d="M 426.88 1552.45 426.38 1551.38 425.61 1550.46 424.29 1550.13 423.5 1549.77 422.43 1548.96 422.24 1548.51 423 1547.1 423.22 1545.94 423.34 1543.28 424.3 1539.84 425.75 1538.08 426.77 1536.67 427.18 1535.45 427.2 1534.97 426.93 1534.59 426.53 1534.16 423.31 1532.81 421.12 1531.95 419.05 1530.88 416.89 1529.36 415.64 1526.96 415.27 1522.63 415.39 1519.97 415.42 1519.09 415.24 1517.28 414.58 1515.64 413.38 1514.63 411.8 1514 410.61 1513.05 409.54 1509.78 409.05 1508.36 407.9 1507.58 405.1 1507.08 401.44 1506.15 397.99 1504.12 397.04 1501.56 396.17 1500.45 395.72 1498.85 393.72 1497 390.78 1495.09 393.85 1493.04 394.59 1490.93 394.72 1489 394.56 1487.19 393.74 1486.44 393.35 1485.02 393.38 1483.9 393.47 1482.55 393.74 1481.89 394.06 1481.09 394.75 1480.52 395.83 1479.65 396.04 1479.35 396.8 1478.24 397.1 1476.95 396.74 1475.4 396.61 1472.62 396.42 1470.84 396.26 1469.68 396.19 1469.15 396.32 1467.56 396.37 1466.87 396.49 1465.81 396.56 1464.47 397.05 1462.65 398.33 1461.73 398.52 1461.66 399.97 1461.11 401.41 1460.22 401.43 1460.19 401.9 1459.39 403.11 1457.67 404.76 1456.58 406.44 1456.08 408.2 1455.17 409.25 1454.02 410.18 1452.93 412.26 1452.19 414.55 1451.69 414.66 1451.66 416.51 1450.49 416.99 1450.18 418.55 1448.19 418.38 1446.18 417.84 1441.63 417.91 1439.09 418.42 1435.56 419.08 1432.57 420.13 1430.89 420.72 1428.65 420.88 1428.07 420.76 1427.53 420.13 1424.68 419.6 1422.98 418.22 1420.14 417.28 1417.73 417.18 1417.27 416.89 1415.92 417.12 1415.22 418.78 1414.4 419.94 1414.33 419.98 1414.33 420.05 1414.31 421.34 1413.95 423.27 1412.82 425.27 1410.72 426.49 1409.11 427.43 1406.83 427.37 1404.55 427.38 1402.51 427.88 1399.72 429.06 1397.09 430.04 1395.18 432.18 1393.6 433.97 1392.01 434.79 1390.58 435.79 1388.81 435.95 1388.36 436.09 1387.97 436.14 1387.35 436.25 1386.15 436.22 1383.3 436 1381.03 436.21 1380.2 436.99 1378.85 438 1375.84 438.74 1373.52 439.05 1371.48 439.8 1366.6 439.91 1364.96 440.24 1363.94 441.39 1362.8 442.97 1360.96 445.14 1358.11 446.98 1355.58 448.47 1352.97 448.73 1352.45 450.64 1348.62 451.44 1344.85 451.02 1342.24 449.81 1340.18 447.98 1337.84 447 1336.84 445.47 1335.27 443.5 1333.43 442.84 1332.41 442.66 1331.5 442.75 1331.01 443.11 1330.5 443.75 1329.89 444.46 1328.92 444.7 1328.47 445.15 1327.63 445.13 1326.66 444.57 1325.71 443.81 1324.54 443.81 1324.54 442.66 1322.92 440.46 1320.3 439.08 1318.27 438.93 1318.09 436.03 1314.5 435.13 1312.61 434.98 1311.1 435.03 1309.81 436.23 1308.76 437.31 1307.5 438.4 1303.64 439.17 1301.06 439.54 1298.46 439.51 1295.81 439.36 1294.33 439.29 1293.69 439.32 1292.39 439.36 1290.2 439.03 1287.89 439 1287.64 438.68 1286.87 438.25 1285.8 437.88 1284.14 438.13 1282.54 438.24 1281.98 438.53 1280.65 438.46 1279.17 438.45 1278.98 438.44 1278.65 437.82 1277.77 437.55 1277.37 436.74 1276.04 436.13 1274.58 436.18 1273.63 436.2 1273.22 436.16 1271.11 435.78 1269.53 434.81 1267.28 434.07 1265.79 434.06 1265.53 433.74 1265.11 433.34 1264.59 432.24 1263.3 431.87 1262.92 431.62 1262.57 431.37 1262.2 431.24 1261.48 431 1259.58 430.98 1258.2 430.57 1256.54 430.62 1255.24 430.62 1255.14 430.68 1255 431.24 1253.73 431.25 1252.46 431.25 1252.16 430.72 1250.58 430.16 1249.29 430.01 1247.62 429.73 1245.37 429.71 1245.19 429.32 1244.9 428.49 1243.08 427.96 1241.72 427.39 1240.59 426.48 1238.21 424.06 1234.92 422.1 1233 420.67 1230.56 420.02 1228.6 417.93 1227.7 415.43 1226.21 412.81 1224.43 412.27 1223.99 411.57 1223.72 409 1223.13 408.43 1223.23 407.77 1223.5 406.87 1223.95 405.86 1224.47 404.79 1224.92 403.59 1224.93 401.95 1224.82 400.48 1224.73 399.3 1224.64 397.99 1224.34 397.46 1223.99 395.65 1223.56 394.48 1223.32 393.75 1223.39 392.66 1223.84 391.95 1223.94 391.3 1223.62 390.67 1223.2 389.84 1222.45 388.95 1221.64 387.66 1220.23 386.69 1219.57 385.74 1218.96 384.63 1218.36 383.51 1217.88 382.53 1217.11 381.83 1216.35 381.23 1215.18 380.6 1214.17 379.94 1213.51 378.83 1211.99 377.84 1210.6 377.38 1209.71 377.32 1209.27 377.35 1208.61 377.78 1207.57 378.14 1206.54 378.56 1204.75 378.8 1203.33 379.06 1202.23 379.65 1201.14 381 1199.79 382.19 1198.37 383.08 1197.49 384.02 1196.64 384.63 1196.19 384.52 1195.71 384.55 1194.89 384.26 1193.73 384.09 1192.86 384.04 1191.87 384.18 1190.6 384.75 1188.68 384.99 1187.78 384.95 1186.97 384.81 1186.56 384.22 1185.83 383.56 1185.15 382.95 1184.16 382.94 1182.89 382.99 1181.75 383.06 1181.06 383.01 1180.83 382.98 1180.69 382.5 1180.43 381.29 1179.49 380.15 1177.7 379.41 1176.37 379.51 1175.8 380.2 1174.38 380.34 1174.08 380.61 1173.52 380.66 1173.42 381.13 1172.61 381.52 1171.26 381.69 1170.44 381.79 1169.97 381.73 1169.15 381.29 1168.33 380.45 1167.35 378.52 1166.29 377.54 1165.5 376.08 1164.1 375.87 1163.99 374.65 1163.34 373.79 1162.83 373 1161.64 372.87 1161.45 372.24 1160.74 371.77 1160.15 370.85 1158.62 370.38 1157.81 368.51 1157.42 367.13 1157 366.2 1156.78 365.34 1156.86 364.14 1157.26 363.73 1157.69 363.08 1157.89 362.82 1157.85 362.54 1157.61 362.24 1157.25 362.23 1157.23 362.01 1156.72 361.88 1156.27 361.83 1156.05 361.76 1155.72 361.74 1155.24 361.75 1154.84 361.76 1154.53 361.59 1154.18 361.55 1154.09 361.32 1153.58 361.2 1153.23 361.22 1152.96 361.34 1152.54 361.62 1152.06 361.83 1151.46 361.99 1150.81 362.04 1150.37 362.05 1150.2 362.08 1149.48 362.03 1149.01 361.59 1147.81 361.2 1146.96 361.06 1146.57 360.94 1146.29 360.63 1145.97 359.7 1145.29 357.72 1144.37 357.31 1144.35 356.59 1144.27 356.3 1144.19 355.66 1143.86 355.43 1143.86 355.19 1143.99 354.16 1144.82 353.56 1144.95 352.74 1144.79 352.41 1144.8 352.12 1144.99 351.47 1145.88 349.98 1147.74 347.68 1145 346.34 1142.49 346.09 1142.48 344.77 1141.91 342.76 1139.99 340.64 1136.88 342.98 1135.58 341.55 1133.41 342.99 1132.21 342.88 1132.01 344.29 1131.08 346.04 1133.52 347.63 1132.54 349.35 1135.19 351.2 1134.46 352.85 1133.39 353.59 1132.87 353.98 1132.6 353.44 1130.81 352.93 1129.1 351.96 1126.25 352.07 1124.12 351.78 1124.07 351.71 1123.4 351.93 1121.91 352.55 1119.94 352.52 1118.6 352.48 1115.62 352.45 1113.69 350.22 1111.8 349.3 1111.02 348.33 1110.19 347.7 1110.8 345.28 1108.54 347.69 1106.09 347.7 1106.07 347.67 1106.04 342.55 1100.52 341.94 1099.1 341.85 1097.56 342.11 1096.11 346.12 1080.66 346.55 1080.13 340.19 1075.79 335.77 1070.47 339.83 1065.39 328.03 1055.97 326.22 1054.19 325.08 1052.94 320.84 1048.09 317.52 1044.43 302.82 1027.42 300.57 1022.05 298.97 1018.11 301.86 1017.55 304.45 1016.15 306 1015.28 307.35 1016.8 309.56 1018.84 311.57 1018.67 312.95 1018.98 315.43 1017.18 320.35 1017.91 321.61 1018.63 323.64 1019.05 324.38 1019.33 325.25 1019.47 325.66 1019.2 325.95 1019.26 330.57 1020.37 342.07 1021.79 351.89 1020.63 360.16 1017.14 365.98 1011.84 370.65 1001.67 374.7 991.71 377.24 988.96 379.12 988.66 384.39 987.83 388.06 986.64 393.71 984.82 401.7 978.65 403.22 977.47 411.32 967.49 419.76 958.21 424.53 955.31 432.31 951.77 439.31 951.68 439.37 951.68 435.82 965.18 435.79 970.3 434.53 974.72 439.82 982.38 441.83 985.61 445.14 990.19 444.88 993.72 450.05 1001.68 450.05 1007.07 448.74 1011.75 448.43 1015.84 450.48 1016.45 452.56 1018.34 457.72 1018.73 463.69 1022.79 464.96 1023.66 464.42 1029.21 463.52 1034.16 460.72 1040.35 458.72 1042.84 458.34 1046.7 452.58 1056.75 450.92 1061.07 454.98 1071.79 458.04 1078.24 461.17 1081.98 463.93 1083.6 464.87 1084.9 465.37 1087.72 465.97 1091.05 467.23 1093.39 468.39 1097.08 470.12 1098.79 473.35 1100.35 473.57 1101.77 474.73 1102.82 475.48 1104.01 476.97 1104.39 478.43 1105.26 478.84 1106.82 480.29 1109.35 480.93 1113.44 484.49 1116.61 487.53 1120.5 488.04 1121.71 490.04 1121.96 492.15 1122.09 499.54 1122.09 502.29 1126.11 504.28 1128.54 507.39 1132.09 509.45 1133.45 511.35 1133.79 513.43 1134.8 515.12 1135.85 517.09 1137.3 518.96 1139.28 520.15 1140.94 520.44 1141.36 530.86 1149.51 541.43 1158.06 542.63 1158.97 545.77 1161.43 546.21 1163.15 552.71 1167.69 553.8 1168.23 557.05 1167.93 559.52 1169.38 560.48 1168.54 565.9 1174.3 568.32 1172.7 571.75 1175.08 572.67 1172.57 575.48 1174.01 575.48 1174.54 575.56 1175.36 576.15 1175.76 572.77 1181.83 577.64 1184.7 577.74 1193.25 579.13 1195.65 579.14 1205.25 577.37 1208.82 575.55 1211.74 576.11 1213.84 576.56 1215.64 576.22 1216.81 575.42 1218.26 574.04 1219.45 572.63 1221.45 572.58 1223.93 573.29 1225.33 574.48 1226.93 575.35 1227.21 575.47 1228.09 576.3 1230.85 577.47 1232.03 578.4 1233.24 579.41 1233.88 581.92 1234.67 582.38 1235.33 582.97 1236.29 583.1 1236.84 584.13 1237.53 584.06 1239.57 585.11 1239.96 596.21 1244.77 598.1 1242.31 607.43 1242.93 607.33 1243.26 607.25 1243.87 607.36 1244.37 607.52 1245.4 607.24 1246.07 606.2 1246.89 605.69 1247.85 605.52 1248.49 605.39 1248.99 604.45 1249.92 604 1251.06 603.92 1251.97 603.9 1252.27 604.38 1254.29 604.15 1255.99 604.07 1256.89 604.17 1257.52 604.54 1258.3 603.66 1260.11 603.06 1261.35 602.26 1262.98 604.63 1265.23 594.76 1274 592.27 1276.28 591.86 1276.26 591.52 1276.63 584.58 1287.7 589.08 1291.02 592.38 1293.46 593.99 1294.99 593.95 1296.7 593.36 1297.85 594.39 1302.45 594.84 1305.44 596.25 1306.44 595.06 1307.98 594.12 1309.33 593.45 1310.31 592.98 1311.33 592.74 1312.15 592.35 1313.17 591.88 1314.12 591.13 1315.65 589.41 1316.86 588.19 1317.45 586.19 1319.26 584.54 1321.34 582.42 1323.97 581.05 1325.46 578.69 1327.66 575.94 1330.01 574.14 1332.05 572.84 1333.66 571.16 1334.76 569.7 1337.08 568.37 1339.16 567.03 1340.8 565.54 1342.53 563.98 1344.12 563.44 1344.53 563.08 1344.85 562.28 1346.12 560.89 1347.82 559.72 1349.43 558.5 1350.07 556.83 1351.07 555.63 1351.94 554.19 1353.91 553.21 1355.66 552.41 1357.25 551.99 1358.61 551.15 1360.2 550.54 1361.95 549.98 1363.01 548.98 1364.76 548.18 1366.13 547.03 1368.1 546.12 1369.75 545.31 1371.39 544.92 1372.81 544.42 1374.5 543.89 1376.15 543.25 1377.79 542.33 1379.43 541.3 1381.07 539.6 1382.21 537.71 1382.71 535.32 1383.13 533.79 1384.33 532.56 1385.89 531.67 1387.72 530.25 1389.64 529.06 1391.48 527.89 1392.98 527.11 1394.76 526.02 1398.27 525.5 1400.25 525.13 1402.08 524.63 1403.59 523.77 1405.51 523.16 1406.42 523.1 1408.04 522.8 1409.43 522.32 1411.27 521.85 1412.27 521.24 1414.19 520.65 1415.86 520.01 1417.31 519.07 1418.47 516.9 1420.03 515.67 1421.06 514.24 1422.53 512.71 1424.29 511.56 1427 510.03 1430.81 508.17 1434.1 506.32 1437.49 504.73 1440.61 502.82 1444.16 501.87 1445.96 501.76 1447.61 502.03 1450.15 501.98 1451.58 501.45 1454.86 501.29 1457.94 501.07 1460.69 500.65 1463.02 499.54 1466.04 498.27 1468.26 495.35 1470.81 492.71 1472.82 491.06 1474.2 489.39 1475.49 488.59 1476.04 488.02 1476.42 486.74 1477.13 484.87 1478.57 484.31 1479.52 483.59 1480.91 482.91 1482.87 482.58 1484.35 481.39 1486.91 480.12 1489.44 479.96 1490.3 479.61 1490.99 479.25 1492.1 478.9 1492.69 478.58 1493.39 477.93 1494.92 477.31 1496.04 476.72 1496.43 475.52 1497.46 475.1 1497.79 474.11 1498.55 473.94 1498.69 473.17 1499.31 472.98 1499.46 472.88 1499.54 472.54 1499.81 472.13 1500.14 471.14 1501.02 469.04 1502.87 468.24 1503.74 467.09 1505.1 466.22 1506.4 465.95 1506.81 465.36 1507.85 465.14 1508.2 464.62 1509.08 464.19 1510 463.97 1510.34 463.91 1510.43 460.36 1516.21 460.2 1516.36 458.92 1517.54 457.38 1518.96 456.5 1519.78 453 1522.86 450.22 1525.3 449.93 1525.56 447.83 1527.41 444.4 1529.45 443.5 1530.01 442.83 1530.35 442.61 1530.48 439.4 1532.21 438.08 1533.04 436.56 1534.15 435.49 1534.9 434.43 1535.73 432.95 1536.9 432.14 1537.86 431.35 1539.48 430.87 1540.82 430.7 1542.53 430.66 1544.3 430.76 1545.2 430.68 1546.01 430.39 1547.47 429.95 1548.53 429.14 1549.95 427.86 1551.89 426.88 1552.45 Z" id="PUENTE_PIEDRA" class="area active" title="PUENTE PIEDRA"></path>
<path d="M 45.58 1054.43 45.57 1054.43 45.4 1054.47 45.22 1054.46 44.98 1054.26 44.78 1053.88 44.69 1053.58 44.63 1053.28 44.6 1052.82 44.73 1052.57 44.77 1052.23 45 1052.13 45.06 1051.98 45.1 1051.87 45.3 1051.79 45.42 1051.5 45.42 1051.03 45.4 1050.54 45.32 1049.95 45.1 1049.31 44.97 1048.88 44.63 1048.58 44.6 1048.37 44.56 1048.18 44.54 1048.08 44.65 1047.86 44.93 1047.92 45.18 1048.11 45.53 1048.37 45.69 1048.46 45.8 1048.45 45.89 1048.4 45.91 1048.39 45.98 1048.13 45.88 1047.68 45.89 1047.47 45.91 1047.24 45.88 1047.05 45.91 1046.93 46.12 1046.87 46.18 1046.85 46.22 1046.8 46.2 1046.72 46.12 1046.59 46.09 1046.43 46.26 1046.32 46.65 1046.25 46.73 1046.16 46.72 1046.06 46.65 1045.97 46.53 1046.08 46.4 1046.08 46.23 1046.14 46.06 1046.1 45.89 1046 45.93 1045.71 46.16 1045.47 46.21 1045.44 46.63 1045.28 46.85 1045.2 46.85 1045.14 46.73 1045.08 46.48 1045.05 46.37 1044.96 46.33 1044.83 46.36 1044.72 46.26 1044.61 46.17 1044.51 46.17 1044.51 46.14 1044.34 46.42 1044.21 46.87 1043.97 46.99 1043.89 47.07 1043.83 47.15 1043.77 47.15 1043.7 47.01 1043.75 46.91 1043.77 46.8 1043.78 46.72 1043.87 46.58 1043.85 46.52 1043.83 46.42 1043.87 46.37 1043.9 46.3 1044.01 46.04 1044.04 46.01 1043.99 46.04 1043.89 46.34 1043.59 46.38 1043.55 46.4 1043.54 46.5 1043.48 46.65 1043.49 46.71 1043.42 46.79 1043.33 46.88 1043.27 47.03 1043.23 47.19 1043.21 47.27 1043.17 47.28 1043.09 47.34 1043 47.47 1043.01 47.48 1043.02 47.51 1043.01 47.65 1043.09 47.77 1043.3 47.71 1043.38 47.78 1043.46 47.95 1043.45 48.29 1043.5 48.8 1043.54 49.27 1043.44 49.53 1043.38 49.64 1043.32 49.72 1043.18 49.74 1042.99 49.37 1042.85 48.94 1042.79 48.51 1042.77 48.02 1042.71 47.57 1042.6 47.42 1042.52 47.45 1042.34 47.83 1041.84 47.93 1041.64 48.11 1041.21 48.35 1040.75 48.51 1040.52 48.94 1040.34 49.42 1040.31 49.67 1040.39 50.04 1040.14 50.09 1039.69 50.37 1039.15 50.76 1038.58 51.24 1038.43 51.46 1038.59 51.75 1038.9 51.99 1039.07 52.39 1039.03 52.71 1038.78 52.97 1038.62 53.38 1038.52 53.67 1038.56 54.12 1038.41 53.63 1037.57 53.58 1037.07 53.82 1036.58 54.1 1036.15 54.41 1035.93 54.98 1035.97 55.53 1036.2 56.13 1036.35 56.37 1036.54 56.61 1036.58 57.03 1036.47 57.49 1036.59 57.68 1036.81 58.21 1037.63 58.51 1038.01 58.9 1038.16 59.33 1038.01 59.65 1037.72 59.4 1037.04 59.24 1036.38 59.25 1036.12 59.44 1035.64 59.59 1035.46 60.06 1035.41 60.2 1035.64 60.57 1035.79 60.71 1035.32 60.91 1035.12 61.43 1035.05 61.83 1035.32 62.1 1035.45 62.49 1035.69 63.32 1036.04 63.58 1036.11 64.35 1036.47 65.25 1036.86 65.53 1036.95 66.01 1037.17 66.59 1037.51 67.6 1037.78 67.62 1037.48 67.43 1037.29 67 1036.73 66.8 1036.29 66.81 1035.18 66.82 1034.43 66.86 1034.11 66.77 1033.57 66.96 1033.21 67.19 1033.05 67.21 1032.61 67.14 1032.32 67.22 1031.86 67.2 1031.38 67.36 1031.19 67.75 1030.94 68.19 1030.79 69.1 1030.85 69.54 1030.77 69.94 1030.8 70.41 1030.87 71.34 1031.2 71.93 1031.68 72.37 1031.78 72.79 1031.91 73.09 1032.26 73.53 1032.39 73.81 1032.32 74.03 1031.9 73.94 1031.48 74.01 1031 74.4 1030.76 75.68 1030.75 76.17 1030.79 76.58 1030.79 78.1 1030.85 78.41 1030.8 79.11 1030.66 79.31 1030.48 79.44 1029.96 79.43 1029.43 79.44 1029.05 79.32 1028.42 78.99 1027.89 78.74 1027.43 78.44 1027.15 78.38 1026.71 77.8 1026.43 76.79 1026.26 76.08 1026.01 75.76 1025.95 74.9 1025.77 74.16 1025.6 73.73 1025.36 73.01 1024.87 72.54 1024.61 71.84 1023.88 71.46 1023.69 70.95 1023.6 70.2 1023.6 70.01 1023.41 69.98 1023.16 70.08 1022.63 70.04 1022.4 69.79 1022.12 69.49 1021.93 68.37 1021.61 68.16 1021.47 67.98 1021.24 67.76 1021.09 66.83 1020.86 66.05 1020.63 65.67 1020.41 65.39 1020.07 64.96 1019.88 65.01 1019.62 65.59 1019.11 65.8 1018.74 65.88 1018.46 66.17 1018.14 66.51 1017.81 66.73 1017.66 67.16 1017.52 67.55 1017.23 67.6 1016.96 67.38 1016.52 67.09 1016.18 66.99 1015.92 67.05 1015.25 66.79 1014.87 66.24 1014.87 66.14 1014.46 66.47 1014.14 66.79 1013.9 67.22 1013.54 67.46 1013.44 67.98 1012.88 68.45 1012.62 68.73 1012.62 69.17 1012.55 69.42 1012.48 69.88 1012.38 70.17 1012.26 70.52 1012.12 70.85 1012.12 71.08 1012.09 71.62 1011.97 72.08 1011.94 72.47 1011.95 72.91 1011.88 73.18 1011.88 73.66 1011.8 73.78 1011.32 74.23 1011.25 74.68 1011.21 74.96 1011.26 75.23 1011.26 75.5 1011.3 75.74 1011.41 76 1011.12 75.6 1010.86 75.21 1010.7 74.77 1010.62 74.37 1010.33 74.23 1009.88 74.68 1009.77 74.99 1009.85 75.41 1009.88 76.02 1009.93 76.19 1009.64 75.81 1009.44 75.37 1009.37 74.99 1009.22 74.78 1009 74.83 1008.54 75.17 1008.33 75.62 1008.1 76.39 1007.97 76.7 1007.72 76.78 1007.44 76.93 1007.23 77.37 1007.15 78.1 1007.46 78.47 1007.5 78.75 1007.57 79.11 1007.77 79.43 1007.84 79.91 1007.89 80.31 1007.89 80.59 1007.92 81.08 1008 81.52 1008.11 81.85 1008.38 82.29 1008.9 82.6 1009.22 83.01 1009.43 83.48 1009.32 83.63 1008.87 83.89 1008.8 84.78 1008.87 85.26 1008.74 85.52 1008.7 86.03 1008.82 86.5 1008.83 86.7 1008.45 86.91 1008.01 87.08 1007.79 87.21 1007.34 87.38 1007.15 87.53 1006.94 87.85 1006.64 88.29 1006.53 88.64 1006.31 88.75 1005.9 88.35 1005.68 87.75 1005.52 87.32 1005.22 87.59 1004.88 87.98 1004.86 88.45 1004.71 88.18 1004.45 87.78 1004.37 87.35 1004.33 86.86 1004.37 86.53 1004.14 86.43 1003.65 86.62 1003.47 86.88 1003.4 87.34 1003.44 87.59 1003.36 88.46 1003.23 88.9 1003.23 89.39 1003.12 89.83 1002.73 90.06 1002.53 90.5 1002.46 90.78 1002.46 91.3 1002.32 91.58 1002.21 91.86 1001.88 92 1001.52 92 1000.99 91.99 1000.75 92.05 1000.5 92.18 1000.24 92.15 999.98 92.08 999.73 92.09 999.31 92.22 998.75 92.11 998.42 92.15 997.94 91.99 997.45 91.99 996.62 91.8 996.08 91.76 995.56 91.48 994.33 91.3 993.94 91.17 992.91 90.82 992.37 90.78 991.98 90.81 991.5 90.55 991.19 90.41 990.9 90.33 990.64 90.29 990.41 90.33 990.12 90.25 989.71 89.51 988.31 89.24 987.6 88.8 986.18 88.54 985.52 88.45 985.19 88.02 983.93 87.96 983.41 87.63 982.59 87.58 982.29 87.58 981.31 87.51 980.42 87.29 978.95 87.1 977.55 87.05 976.84 86.92 976.27 86.57 975.93 86.3 975.93 85.92 976 85.72 975.59 85.27 975.7 84.86 975.88 84.02 975.88 83.63 975.91 83.22 975.72 83 975.31 82.54 975.2 82.55 974.71 82.79 974.6 82.98 974.22 83.35 973.9 84.04 973.72 84.57 973.2 84.8 973.06 85.19 972.71 85.44 972.43 86.06 971.69 86.42 971.44 86.78 971.31 87.29 971.18 87.65 970.81 87.86 970.41 87.81 969.96 87.75 969.59 87.76 969.28 88.12 968.92 88.13 968.54 87.87 968.5 87.41 968.54 87 968.54 86.56 968.42 85.76 967.97 85.34 968.08 85.14 968.22 84.94 968.45 84.53 968.59 83.9 968.3 83.4 968.17 83.62 967.76 83.84 967.48 83.41 967.44 83.18 967.54 82.74 967.6 82.31 967.8 82.13 968.01 81.73 968.09 81.48 967.97 81.27 967.82 80.96 967.45 80.63 967.25 80.25 967.19 79.88 967.26 79.35 967.4 78.79 967.47 78.42 967.32 78.2 967.17 77.78 966.91 77.51 966.8 77.18 966.38 77.2 966.12 77.47 965.75 77.89 965.57 78.08 965.39 78.1 964.64 78.29 964.46 79.06 964.08 79.42 963.85 79.74 963.65 80.08 963.24 80.5 962.95 80.88 962.72 81.11 962.51 81.28 962.29 81.59 962.07 81.8 961.84 81.79 960.99 81.71 960.6 81.07 960.26 80.81 960.13 80.62 959.79 81.06 959.83 81.45 959.96 82.07 960.06 82.38 960.06 82.85 960.1 82.94 959.62 82.9 959.11 83.06 958.7 83.31 958.29 83.43 958.03 83.53 957.55 83.32 957.14 83.23 956.39 83.14 956.13 83.02 955.91 82.83 955.69 82.29 955.01 81.99 954.81 81.59 954.45 81.47 953.93 81.47 953.56 81.52 953.26 81.91 952.59 82.2 951.92 83.05 951.19 83.34 950.78 83.61 949.85 83.77 949.52 83.96 949.23 84.34 948.86 84.76 948.45 85.15 948.2 85.84 947.94 86.38 947.54 86.61 947.02 86.7 946.16 86.65 945.68 86.48 944.97 86.14 944.54 85.05 943.44 84.27 942.37 83.83 941.93 83.35 941.23 82.2 939.72 81.55 938.97 81.14 938.43 80.21 937.48 79.74 936.89 79.35 936.52 78.97 936.37 78.53 936.44 78.14 936.62 77.79 936.91 77.33 936.92 76.45 936.16 76.21 935.75 75.76 935.56 75.35 935.44 74.82 935.4 74.29 935.65 73.47 935.76 73.12 935.91 72.84 935.98 72.36 935.89 71.95 936.13 71.52 936.34 71.18 936.53 70.8 936.61 70.39 936.26 69.8 935.44 69.52 935.36 69.14 935.32 68.78 935.03 68.65 934.58 68.58 934.17 68.6 933.29 68.56 932.94 68.68 932.42 68.74 931.94 68.92 931.49 69.11 931.23 69.57 930.79 69.76 930.35 69.75 930.09 69.69 929.83 69.58 929.6 69.44 929.23 69.72 928.78 69.7 928.37 69.51 928.1 69.35 927.88 69.12 927.4 69.33 926.97 69.74 926.7 70.34 926.35 70.73 926.16 71.14 926.05 71.42 925.9 71.92 925.83 72.3 925.98 72.77 926.09 73.16 926.02 73.07 924.8 72.69 923.41 71.99 921.79 71.22 919.63 70.76 917.55 69.91 915.46 68.37 913.15 66.75 910.07 65.05 908.21 63.04 905.75 61.35 903.59 59.88 901.89 59.03 901.04 58.49 899.88 57.64 898.8 56.64 897.57 55.56 896.26 54.48 895.25 53.63 893.94 52.78 893.17 52 892.51 167.71 859.26 169.61 861.61 173.4 865.45 185.34 877.09 192.96 884.76 229.47 920.77 242.98 934.1 246.33 937.42 245.03 939.45 245 939.48 213.6 1016.26 212.33 1016.16 209.62 1016.5 209.3 1017.41 208.32 1019 208.21 1021.3 207.98 1022.13 207.64 1023.32 206.84 1025.13 204.98 1025.84 202.84 1026.36 200.19 1026.09 198.33 1024.63 197.65 1024.22 196.87 1023.58 195.93 1023.47 194.23 1023.43 192.32 1023.61 191.21 1023.65 189.98 1023.81 188.72 1024.18 188.2 1024.58 187.7 1025.38 187.22 1025.83 186.2 1026.76 185.32 1028.46 184.03 1029.21 182.31 1029.07 180.39 1028.93 179.04 1029.24 177.89 1030.95 177.67 1031.55 177.42 1032.21 175.88 1035.94 175.45 1037.47 173.93 1039.83 173.12 1043.11 155.8 1039.17 155.66 1039.14 155.43 1039.09 154.27 1039.13 153.12 1039.58 151.93 1039.68 151.37 1039.53 151.09 1039.05 149.93 1038.94 148.01 1039.42 148.12 1042.57 147.95 1044.6 147.97 1045.92 147.69 1046.78 146.46 1047.3 144.16 1047.51 144.06 1047.19 143.7 1047.17 142.72 1047.28 140.62 1047.64 138.35 1047.6 136.41 1046.79 132.66 1046.39 131.73 1045.57 128.84 1043.35 127.57 1042.6 126.49 1042.54 125.07 1043.01 124.3 1043.68 122.68 1045.69 121.72 1046.56 120.89 1046.93 119.22 1047.27 118.95 1047.21 118.23 1046.92 116.97 1046.49 114.07 1045.42 111.13 1044.41 108.75 1043.4 106.43 1042.79 102.47 1042.28 102.24 1042.25 99.75 1041.89 97.73 1042.47 95.69 1043.54 93.81 1044.56 92.01 1045.02 91.05 1045.45 90.37 1046.16 90.27 1047.04 91.77 1050.55 91.89 1051.65 91.82 1052.53 91.27 1053.78 90.47 1054.77 89.85 1054.97 88.88 1055.06 87.65 1055.14 86.08 1055.13 84.39 1054.8 83.15 1053.88 79.63 1052.13 78.25 1051.78 77.3 1051.62 76.4 1051.46 75.18 1051.62 74.39 1052.05 72.75 1052.47 70.26 1053.05 69.95 1053.05 67.14 1052.73 66.77 1052.57 65.4 1051.94 64.61 1051.41 64.5 1050.72 64.18 1049.61 63.76 1048.56 63.07 1047.34 62.02 1046.28 60.59 1043.85 59.48 1042.9 58.31 1042.74 57.42 1042.85 55.88 1043.48 55.09 1043.9 53.82 1044.59 50.57 1047.01 50.49 1047.02 48.37 1049.09 46.36 1051.78 45.58 1054.43 Z" id="SANTA_ROSA" class="area" title="SANTA ROSA"></path>
<path d="M 45.58 1054.43 46.36 1051.78 48.37 1049.09 50.49 1047.02 50.57 1047.01 53.82 1044.59 55.09 1043.9 55.88 1043.48 57.42 1042.85 58.31 1042.74 59.48 1042.9 60.59 1043.85 62.02 1046.28 63.07 1047.34 63.76 1048.56 64.18 1049.61 64.5 1050.72 64.61 1051.41 65.4 1051.94 66.77 1052.57 67.14 1052.73 69.95 1053.05 70.26 1053.05 72.75 1052.47 74.39 1052.05 75.18 1051.62 76.4 1051.46 77.3 1051.62 78.25 1051.78 79.63 1052.13 83.15 1053.88 84.39 1054.8 86.08 1055.13 87.65 1055.14 88.88 1055.06 89.85 1054.97 90.47 1054.77 91.27 1053.78 91.82 1052.53 91.89 1051.65 91.77 1050.55 90.27 1047.04 90.37 1046.16 91.05 1045.45 92.01 1045.02 93.81 1044.56 95.69 1043.54 97.73 1042.47 99.75 1041.89 102.24 1042.25 102.47 1042.28 106.43 1042.79 108.75 1043.4 111.13 1044.41 114.07 1045.42 116.97 1046.49 118.23 1046.92 118.95 1047.21 119.22 1047.27 120.89 1046.93 121.72 1046.56 122.68 1045.69 124.3 1043.68 125.07 1043.01 126.49 1042.54 127.57 1042.6 128.84 1043.35 131.73 1045.57 132.66 1046.39 136.41 1046.79 138.35 1047.6 140.62 1047.64 142.72 1047.28 143.7 1047.17 144.06 1047.19 144.16 1047.51 146.46 1047.3 147.69 1046.78 147.97 1045.92 147.95 1044.6 148.12 1042.57 148.01 1039.42 149.93 1038.94 151.09 1039.05 151.37 1039.53 151.93 1039.68 153.12 1039.58 154.27 1039.13 155.43 1039.09 155.66 1039.14 155.8 1039.17 173.12 1043.11 173.93 1039.83 175.45 1037.47 175.88 1035.94 177.42 1032.21 177.67 1031.55 177.89 1030.95 179.04 1029.24 180.39 1028.93 182.31 1029.07 184.03 1029.21 185.32 1028.46 186.2 1026.76 187.22 1025.83 187.7 1025.38 188.2 1024.58 188.72 1024.18 189.98 1023.81 191.21 1023.65 192.32 1023.61 194.23 1023.43 195.93 1023.47 196.87 1023.58 197.65 1024.22 198.33 1024.63 200.19 1026.09 202.84 1026.36 204.98 1025.84 206.84 1025.13 207.64 1023.32 207.98 1022.13 208.21 1021.3 208.32 1019 209.3 1017.41 209.62 1016.5 212.33 1016.16 213.6 1016.26 213.98 1016.4 215.21 1016.89 216.58 1017.56 218.08 1018.26 219.22 1018.77 220.98 1019.2 222.44 1019.55 223.62 1020.51 224.31 1021.64 224.88 1022.53 226.21 1023.15 227.71 1023.53 229.28 1023.76 231.2 1023.36 232.77 1022.87 234.89 1021.95 236.3 1020.76 237.36 1020.08 238.28 1019.93 239.53 1019.59 240.99 1019.08 241.87 1018.41 242.97 1017.07 243.62 1015.06 244.41 1012 262.28 1010.29 262.5 1011.78 263.2 1011.82 264.04 1012.1 265.3 1012.04 265.8 1012.2 266.44 1012.41 267.27 1012.34 267.84 1013.3 270.03 1011.77 271.26 1013.61 273.05 1016.18 273.8 1014.86 274.59 1013.61 274.87 1012.36 275.7 1012.31 276.08 1012.1 276.02 1011.01 277.08 1010.48 277.54 1011.09 278.73 1011.07 280.22 1011.32 280.57 1012.98 283.3 1012.97 283.88 1012.75 285.09 1013.59 285.9 1013.83 287.48 1014.04 288.44 1014.37 289.04 1014.63 289.8 1016.11 290.37 1015.92 290.63 1016.46 292.16 1016.08 295.17 1014.1 296.93 1012.99 298.97 1018.11 300.57 1022.05 302.82 1027.42 317.52 1044.43 320.84 1048.09 325.08 1052.94 326.22 1054.19 328.03 1055.97 339.83 1065.39 335.77 1070.47 340.19 1075.79 346.55 1080.13 346.12 1080.66 342.11 1096.11 341.85 1097.56 341.94 1099.1 342.55 1100.52 347.67 1106.04 347.7 1106.07 347.69 1106.09 345.28 1108.54 337.28 1116.76 334.38 1119.75 330.29 1124.71 329.75 1125.51 328.07 1130.26 326.59 1133.55 325.28 1135.22 322.73 1137.48 316.84 1139.78 313.59 1140.95 311.81 1141.45 308.88 1141.47 304.09 1140.96 301.49 1141.1 299.49 1141.49 298.13 1141.86 296.41 1143 295.22 1143.86 291.9 1147.1 288.34 1150.61 286.26 1153.53 284.83 1157.1 282.41 1179.17 282.25 1181.01 282.31 1182.05 282.49 1183.47 282.8 1184.53 283.31 1185.76 285.64 1188.8 287.3 1190.98 290.92 1190.2 290.88 1189.45 311.09 1180.31 311.26 1186.06 309.32 1186.11 309.56 1195.85 311.96 1195.84 312.67 1201.93 313.94 1203.03 312.94 1205.66 314.24 1205.83 320.88 1204.72 320.83 1203.5 320.99 1202.72 321.47 1201.48 321.84 1200.74 322.34 1200.05 322.84 1199.38 323.1 1199.1 323.27 1199.04 323.46 1199.04 323.67 1198.99 324.18 1198.68 324.58 1198.35 324.87 1198.04 325.02 1197.69 325.02 1196.95 325.03 1196.4 325.16 1195.95 325.37 1195.49 325.65 1195.22 326.39 1194.86 327.58 1194.35 329.52 1193.7 330.2 1192.97 330.91 1191.97 331.75 1190.88 332.06 1190.43 332.42 1190.2 332.72 1190.14 333.55 1190.19 334.94 1190.1 336.46 1189.09 337.3 1188.17 337.52 1187.82 338.16 1186.6 338.4 1185.94 338.64 1184.98 339.04 1184.04 339.37 1183.41 339.92 1182.77 340.77 1181.94 342.21 1180.69 342.99 1180.19 343.91 1179.49 344.35 1179.17 344.82 1178.84 345.33 1178.67 346.01 1178.53 347.28 1178.04 347.21 1177.48 347.16 1176.95 347.28 1176.34 347.52 1175.17 347.86 1174.6 348.34 1174.04 348.98 1173.56 349.8 1172.84 350.86 1171.57 351.11 1171.49 351.61 1171.4 352.26 1170.98 352.56 1170.71 352.86 1170.5 353.35 1170.34 353.83 1170.26 354.19 1170.18 354.46 1170.15 354.62 1170 354.87 1169.58 354.99 1169.06 355.04 1168.64 355.17 1168.44 355.6 1167.81 356.02 1167.34 356.27 1167.06 356.39 1166.98 356.3 1166.65 356.2 1166.08 356.22 1165.53 356.29 1165.21 356.42 1165.06 357.03 1164.75 357.56 1164.56 358.09 1164.32 358.4 1164.13 358.67 1163.63 358.88 1163.16 359.06 1162.26 359.31 1161.53 359.33 1161.19 359.51 1160.98 360.21 1160.51 360.92 1160.07 361.4 1159.87 361.88 1159.72 362.39 1159.59 362.93 1159.45 363.15 1159.31 363.31 1159.07 362.82 1157.85 363.08 1157.89 363.73 1157.69 364.14 1157.26 365.34 1156.86 366.2 1156.78 367.13 1157 368.51 1157.42 370.38 1157.81 370.85 1158.62 371.77 1160.15 372.24 1160.74 372.87 1161.45 373 1161.64 373.79 1162.83 374.65 1163.34 375.87 1163.99 376.08 1164.1 377.54 1165.5 378.52 1166.29 380.45 1167.35 381.29 1168.33 381.73 1169.15 381.79 1169.97 381.69 1170.44 381.52 1171.26 381.13 1172.61 380.66 1173.42 380.61 1173.52 380.34 1174.08 380.2 1174.38 379.51 1175.8 379.41 1176.37 380.15 1177.7 381.29 1179.49 382.5 1180.43 382.98 1180.69 383.01 1180.83 383.06 1181.06 382.99 1181.75 382.94 1182.89 382.95 1184.16 383.56 1185.15 384.22 1185.83 384.81 1186.56 384.95 1186.97 384.99 1187.78 384.75 1188.68 384.18 1190.6 384.04 1191.87 384.09 1192.86 384.26 1193.73 384.55 1194.89 384.52 1195.71 384.63 1196.19 384.02 1196.64 383.08 1197.49 382.19 1198.37 381 1199.79 379.65 1201.14 379.06 1202.23 378.8 1203.33 378.56 1204.75 378.14 1206.54 377.78 1207.57 377.35 1208.61 377.32 1209.27 377.38 1209.71 377.84 1210.6 378.83 1211.99 379.94 1213.51 380.6 1214.17 381.23 1215.18 381.83 1216.35 382.53 1217.11 383.51 1217.88 384.63 1218.36 385.74 1218.96 386.69 1219.57 387.66 1220.23 388.95 1221.64 389.84 1222.45 390.67 1223.2 391.3 1223.62 391.95 1223.94 392.66 1223.84 393.75 1223.39 394.48 1223.32 395.65 1223.56 397.46 1223.99 397.99 1224.34 399.3 1224.64 400.48 1224.73 401.95 1224.82 403.59 1224.93 404.79 1224.92 405.86 1224.47 406.87 1223.95 407.77 1223.5 408.43 1223.23 409 1223.13 411.57 1223.72 412.27 1223.99 412.81 1224.43 415.43 1226.21 417.93 1227.7 420.02 1228.6 420.67 1230.56 422.1 1233 424.06 1234.92 426.48 1238.21 427.39 1240.59 427.96 1241.72 428.49 1243.08 429.32 1244.9 429.71 1245.19 429.73 1245.37 430.01 1247.62 430.16 1249.29 430.72 1250.58 431.25 1252.16 431.25 1252.46 431.24 1253.73 430.68 1255 430.62 1255.14 430.62 1255.24 430.57 1256.54 430.98 1258.2 431 1259.58 431.24 1261.48 431.37 1262.2 431.62 1262.57 431.87 1262.92 432.24 1263.3 433.34 1264.59 433.74 1265.11 434.06 1265.53 434.07 1265.79 434.81 1267.28 435.78 1269.53 436.16 1271.11 436.2 1273.22 436.18 1273.63 436.13 1274.58 436.74 1276.04 437.55 1277.37 437.82 1277.77 438.44 1278.65 438.45 1278.98 438.46 1279.17 438.53 1280.65 438.24 1281.98 438.13 1282.54 437.88 1284.14 438.25 1285.8 438.68 1286.87 439 1287.64 439.03 1287.89 439.36 1290.2 439.32 1292.39 439.29 1293.69 439.36 1294.33 439.51 1295.81 439.54 1298.46 439.17 1301.06 438.4 1303.64 437.31 1307.5 436.23 1308.76 435.03 1309.81 434.98 1311.1 435.13 1312.61 436.03 1314.5 438.93 1318.09 439.08 1318.27 440.46 1320.3 442.66 1322.92 443.81 1324.54 443.81 1324.54 444.57 1325.71 445.13 1326.66 445.15 1327.63 444.7 1328.47 444.46 1328.92 443.75 1329.89 443.11 1330.5 442.75 1331.01 442.66 1331.5 442.84 1332.41 443.5 1333.43 445.47 1335.27 447 1336.84 447.98 1337.84 449.81 1340.18 451.02 1342.24 451.44 1344.85 450.64 1348.62 448.73 1352.45 448.47 1352.97 446.98 1355.58 445.14 1358.11 442.97 1360.96 441.39 1362.8 440.24 1363.94 439.91 1364.96 439.8 1366.6 439.05 1371.48 438.74 1373.52 438 1375.84 436.99 1378.85 436.21 1380.2 436 1381.03 436.22 1383.3 436.25 1386.15 436.14 1387.35 436.09 1387.97 435.95 1388.36 435.79 1388.81 434.79 1390.58 433.97 1392.01 432.18 1393.6 430.04 1395.18 429.06 1397.09 427.88 1399.72 427.38 1402.51 427.37 1404.55 427.43 1406.83 426.49 1409.11 425.27 1410.72 423.27 1412.82 421.34 1413.95 420.05 1414.31 419.98 1414.33 419.94 1414.33 418.78 1414.4 417.12 1415.22 416.89 1415.92 417.18 1417.27 417.28 1417.73 418.22 1420.14 419.6 1422.98 420.13 1424.68 420.76 1427.53 420.88 1428.07 420.72 1428.65 420.13 1430.89 419.08 1432.57 418.42 1435.56 417.91 1439.09 417.84 1441.63 418.38 1446.18 418.55 1448.19 416.99 1450.18 416.51 1450.49 414.66 1451.66 414.55 1451.69 412.26 1452.19 410.18 1452.93 409.25 1454.02 408.2 1455.17 406.44 1456.08 404.76 1456.58 403.11 1457.67 401.9 1459.39 401.43 1460.19 401.41 1460.22 399.97 1461.11 398.52 1461.66 398.33 1461.73 397.05 1462.65 396.56 1464.47 396.49 1465.81 396.37 1466.87 396.32 1467.56 396.19 1469.15 396.26 1469.68 396.42 1470.84 396.61 1472.62 396.74 1475.4 397.1 1476.95 396.8 1478.24 396.04 1479.35 395.83 1479.65 394.75 1480.52 394.06 1481.09 393.74 1481.89 393.47 1482.55 393.38 1483.9 393.35 1485.02 393.74 1486.44 394.56 1487.19 394.72 1489 394.59 1490.93 393.85 1493.04 390.78 1495.09 393.72 1497 395.72 1498.85 396.17 1500.45 397.04 1501.56 397.99 1504.12 401.44 1506.15 405.1 1507.08 407.9 1507.58 409.05 1508.36 409.54 1509.78 410.61 1513.05 411.8 1514 413.38 1514.63 414.58 1515.64 415.24 1517.28 415.42 1519.09 415.39 1519.97 415.27 1522.63 415.64 1526.96 416.89 1529.36 419.05 1530.88 421.12 1531.95 423.31 1532.81 426.53 1534.16 426.93 1534.59 427.2 1534.97 427.18 1535.45 426.77 1536.67 425.75 1538.08 424.3 1539.84 423.34 1543.28 423.22 1545.94 423 1547.1 422.24 1548.51 422.43 1548.96 423.5 1549.77 424.29 1550.13 425.61 1550.46 426.38 1551.38 426.88 1552.45 425.27 1552.83 423.34 1553.49 420.92 1553.73 418.55 1553.73 415.78 1553.47 414.88 1553.38 412.84 1553.05 409.19 1552.92 404.51 1552.36 400.51 1551.34 398.89 1550.89 396.05 1550.67 394.08 1550.8 392.97 1550.23 389.02 1549.79 386.01 1549.38 384.2 1548.9 382.56 1548.58 381.23 1548.01 379.87 1547.82 378.25 1547.51 376.45 1546.97 374.97 1546.1 373.06 1545.32 371.86 1544.72 369.36 1543.52 368.22 1543.07 367.24 1542.6 365.3 1541.81 363.94 1541.37 362.45 1540.83 361.38 1540.35 359.95 1540.1 358.21 1539.66 356.57 1539.69 355.01 1539.05 353.5 1538.64 351.72 1537.98 349.86 1537.65 349.78 1537.68 348.63 1538.1 347.68 1538.55 346.54 1538.62 346.2 1538.64 345.85 1538.65 343.65 1538.53 342.04 1538.96 340.85 1538.65 340.36 1537.73 339.52 1536.75 338.66 1536.17 337.43 1535.51 336.35 1534.78 335.3 1534.65 334.06 1534.54 332.6 1534.42 331.28 1534.33 330.33 1533.96 329.58 1533.21 328.63 1532.9 327.71 1532.84 326.33 1532.93 325.07 1532.93 325.05 1532.93 324.09 1533.19 324 1533.21 323.11 1533.62 322.54 1533.64 322.23 1533.51 321.96 1533.39 321.48 1532.44 321.25 1531.85 320.96 1531.09 320.74 1530.86 320.73 1530.85 320.38 1530.48 319.46 1529.82 318.85 1529.68 318.63 1529.62 317.28 1529.48 316.55 1529.08 316.33 1528.96 315.61 1528.16 315.38 1527.65 315.33 1527.52 314.95 1526.98 314.2 1526.78 313.84 1526.41 313.57 1526.14 313 1525.65 312.11 1524.88 311.1 1523.62 310.55 1522.44 309.86 1521.7 309.69 1521.52 309.35 1520.71 309.26 1519.51 309.06 1518.61 308.43 1517.92 308.07 1517.55 307.91 1517.38 307.28 1516.26 307.04 1515.55 306.9 1515.17 306.59 1513.5 306.1 1512.35 305.85 1511.65 305.74 1511.42 305.21 1510.87 305.04 1510.76 304.4 1510.34 303.8 1510.22 302.65 1510.05 302.57 1510.03 302.18 1510 301.61 1509.94 301.5 1509.93 300.06 1509.84 298.8 1509.59 297.64 1509.23 297.53 1509.17 297.1 1508.95 296.68 1508.72 295.67 1508.01 294.33 1507.02 292.69 1505.45 292.04 1504.35 290.91 1503.28 290.11 1502.82 290.07 1502.8 289.46 1502.21 287.91 1501.12 286.65 1500.54 286.59 1500.5 286.48 1500.46 286.23 1500.34 285.72 1500.11 285.47 1500 285.4 1499.96 284.66 1499.74 284.58 1499.72 284.38 1499.68 284.17 1499.65 283.86 1499.63 283.55 1499.63 283.24 1499.67 282.99 1499.71 282.86 1499.73 282.5 1499.83 282.14 1499.94 282 1500 281.79 1500.08 281.45 1500.25 281.14 1500.42 280.84 1500.61 280.55 1500.82 280.28 1501.04 280.03 1501.29 280.03 1501.28 279.69 1501.56 276.81 1503.9 276.14 1504.44 276.14 1504.45 276.06 1504.49 274.95 1505.15 274.24 1505.58 273.9 1505.7 272.91 1505.96 272.51 1506.05 271.77 1506.24 270.93 1506.48 269.76 1506.79 269.18 1506.94 268.7 1507.07 268.2 1507.22 268.04 1507.27 267.58 1507.41 267.26 1507.51 266.11 1507.85 265.12 1508.13 264.1 1508.39 260.97 1508.96 260.49 1509.04 252.79 1509.4 250.77 1509.53 249.73 1509.59 249.71 1509.04 249.57 1508.7 249.36 1508.06 249.03 1506.54 248.44 1504.73 247.8 1502.74 247.42 1501.35 246.75 1499.75 246.08 1497.18 245.04 1495.19 244.95 1494.73 244.77 1494.25 244.51 1493.75 244.04 1493.19 243.66 1492.97 243.78 1492.64 244.02 1492.46 243.99 1491.99 243.87 1491.62 243.74 1491.32 243.81 1491.06 243.68 1490.67 243.57 1490.29 243.44 1489.95 243.37 1489.67 243.05 1489.56 242.48 1489.56 241.72 1489.59 240.73 1489.64 240.78 1489.32 241.08 1489.27 241.73 1489.29 242.39 1489.23 243.27 1489.11 244.78 1489.05 244.92 1488.74 244.86 1488.41 244.98 1487.85 244.9 1487.36 245.06 1486.92 245.06 1486.51 245.28 1486.1 245.07 1485.65 244.98 1485.33 245.01 1484.89 244.92 1484.36 245.1 1483.72 244.98 1483.24 244.84 1482.55 244.81 1481.92 244.9 1481.32 244.77 1480.9 244.8 1479.96 244.75 1479.47 244.59 1478.78 244.42 1477.81 244.31 1476.99 244.36 1476.15 244.12 1475.39 243.98 1474.79 243.89 1474.12 243.63 1473.53 243.71 1473.01 243.13 1470.84 242.61 1469.85 242.57 1469.59 242.51 1469.37 242.46 1469.06 242.17 1467.6 241.98 1467.1 241.84 1466.64 241.72 1466.32 241.63 1465.96 241.55 1465.63 241.46 1465.27 241.36 1464.82 241.27 1464.49 241.03 1463.63 240.98 1463.31 240.97 1463.07 240.96 1462.76 240.91 1462.43 240.9 1462.05 240.72 1460.96 240.39 1459.74 240.26 1458.95 240.06 1457.7 239.63 1456.06 239.37 1454.61 238.78 1452.57 238.55 1451.62 238.22 1450.14 238.02 1448.99 237.93 1447.98 237.85 1447.67 237.73 1447.27 237.63 1446.91 237.55 1446.61 237.48 1446.35 237.38 1445.96 237.29 1445.62 237 1444.82 236.87 1444.46 236.73 1444.06 236.62 1443.71 236.56 1443.48 236.49 1443.2 236.33 1442.79 236.18 1442.32 236.05 1442.04 235.91 1441.8 235.67 1441.42 235.42 1441.36 235.15 1441.33 234.83 1441.28 234.68 1441.15 234.71 1441 234.97 1440.69 235.28 1440.41 235.47 1440.28 235.56 1439.95 235.53 1439.55 235.27 1439.26 235.15 1438.89 235.04 1438.7 234.79 1438.54 234.38 1438.58 233.64 1438.78 233.32 1438.87 233 1438.87 232.71 1439.08 232.47 1439.22 232.26 1439.22 232.13 1439.16 232.04 1438.98 231.98 1438.74 232.07 1438.58 232.26 1438.48 232.41 1438.37 232.56 1438.27 233.06 1438.27 233.64 1438.25 234.09 1438.23 234.55 1438.16 234.45 1437.89 234.51 1437.66 234.58 1437.48 234.48 1437.16 234.5 1436.82 234.56 1436.62 234.5 1436.52 234.44 1436.24 234.51 1435.85 234.47 1435.41 234.26 1434.75 234 1434.11 233.76 1433.55 233.44 1432.9 233.15 1432.06 233.03 1431.29 232.65 1430.53 232.59 1429.94 232.29 1429.58 232.18 1429.26 232.16 1428.95 232.17 1428.72 232.19 1428.27 232.11 1427.94 231.99 1427.65 231.83 1427.28 231.4 1426.38 231.27 1426.07 231.12 1425.76 230.94 1425.41 230.75 1424.95 230.42 1424.16 230.29 1423.76 230.17 1423.44 230.05 1423.08 229.91 1422.73 229.83 1422.46 229.74 1422.15 229.6 1421.84 229.52 1421.63 229.4 1421.3 229.24 1420.98 229.1 1420.65 228.92 1420.34 228.77 1420.04 228.7 1419.78 228.55 1419.41 228.36 1419.03 228.13 1418.68 227.99 1418.38 227.89 1418.14 227.81 1417.87 227.77 1417.65 227.66 1417.22 227.64 1416.98 227.59 1416.65 227.48 1416.35 227.38 1416.14 227.28 1415.93 227.21 1415.68 227.09 1415.43 227.01 1415.15 226.93 1414.94 226.82 1414.66 226.66 1414.29 226.53 1413.89 226.46 1413.54 226.38 1413.3 226.26 1412.92 226.05 1412.41 225.9 1412.05 225.76 1411.69 225.75 1411.39 225.8 1411.17 225.81 1410.91 225.64 1410.29 225.48 1409.89 225.36 1409.58 225.32 1409.26 225.28 1408.96 225.2 1408.61 224.92 1408.16 224.78 1407.71 224.48 1407.44 224.18 1406.89 224.12 1406.55 224.01 1406.32 223.89 1405.86 223.81 1405.55 223.4 1404.91 223.02 1404.43 222.85 1404.16 222.83 1403.79 222.91 1403.38 223.04 1403.09 223.18 1402.86 223.24 1402.56 223.22 1402.11 223.05 1401.75 222.83 1401.41 222.62 1401.21 222.43 1401.02 222.11 1400.61 221.84 1400.35 221.61 1399.96 221.54 1399.64 221.6 1399.09 221.63 1398.77 221.67 1398.5 221.6 1397.98 221.55 1397.69 221.48 1397.46 221.46 1397.2 221.17 1397 220.7 1396.75 220.67 1396.45 221.08 1396.18 221.46 1395.79 221.54 1395.24 221.93 1395.02 222.16 1394.94 222.46 1394.76 222.53 1394.38 222.16 1393.94 221.8 1393.17 221.69 1392.84 221.6 1392.6 221.53 1392.37 221.43 1392.16 221.36 1391.93 221.06 1391.3 220.36 1390.28 220.24 1389.98 219.9 1389.99 219.48 1390.08 218.89 1390.12 218.55 1389.97 218.34 1389.63 218.29 1389.41 218.14 1389.09 217.77 1388.56 217.49 1388.44 217.14 1388.54 216.75 1388.74 216.42 1388.65 216.21 1388.53 215.9 1388.28 215.54 1388.24 214.94 1388.11 214.77 1387.75 214.87 1387.41 215.06 1387.19 215.27 1386.97 215.48 1386.68 215.59 1386.32 215.71 1385.79 215.97 1385.42 216.36 1385.19 216.51 1384.92 216.56 1384.57 216.44 1384.2 216.16 1383.83 215.85 1383.67 215.58 1383.59 215.52 1383.23 215.71 1382.96 215.89 1382.81 216.05 1382.63 216.08 1382.37 216.14 1382.07 216.46 1381.82 216.79 1381.63 216.83 1381.36 216.71 1381.11 216.43 1380.9 216.17 1380.61 215.93 1380.08 215.85 1379.73 215.7 1379.54 215.36 1379.57 214.9 1379.65 214.5 1379.55 214.13 1379.4 213.86 1379.15 213.56 1378.97 213.28 1378.95 213.15 1378.67 213.34 1378.38 213.75 1378.04 214.01 1377.78 214.18 1377.57 214.3 1377.22 214.63 1377.14 214.96 1377.31 215.27 1377.49 215.52 1377.53 215.76 1377.5 215.95 1377.35 216.08 1376.96 216.2 1376.61 216.31 1376.17 216.43 1375.88 216.65 1375.53 216.72 1375.2 216.87 1374.66 217.15 1374.43 217.67 1374.36 218.1 1374.28 218.22 1373.95 218.28 1373.62 218.45 1373.35 218.54 1373.05 218.77 1372.8 219.01 1372.84 219.23 1372.95 219.6 1373.01 219.93 1373.03 220.16 1372.96 220.27 1372.7 220.09 1372.55 219.95 1372.36 220.01 1372.07 220.5 1371.95 220.49 1371.71 220.34 1371.43 220.01 1371.18 219.74 1370.8 219.59 1370.61 219.27 1370.6 218.66 1370.4 218.44 1370.24 218.17 1370.03 217.91 1369.83 217.7 1369.67 217.34 1369.5 217.15 1369.26 217.06 1368.86 216.96 1368.55 216.91 1368.18 217.07 1367.84 217.32 1367.64 217.59 1367.4 217.74 1367.21 218.05 1366.85 218.41 1366.52 218.56 1366.33 218.63 1366.03 218.62 1365.65 218.39 1365.31 218.18 1365.07 218 1364.77 217.85 1364.5 217.72 1364.16 217.59 1363.79 217.52 1363.5 217.41 1363.09 216.98 1362.73 216.83 1362.51 216.65 1362.14 216.84 1361.87 217.15 1361.59 217.1 1361.24 217.03 1360.93 216.96 1360.64 216.82 1360.14 216.73 1359.77 216.7 1359.48 216.69 1359.24 216.64 1358.85 216.58 1358.51 216.54 1357.9 216.52 1357.59 216.52 1357.25 216.54 1356.88 216.52 1356.64 216.49 1356.36 216.36 1355.76 216.15 1355.09 215.95 1354.64 215.88 1354.4 215.75 1354.11 215.52 1353.67 215.44 1353.45 215.36 1353.22 215.2 1352.98 215.07 1352.69 214.86 1352.35 214.72 1352.11 214.48 1351.73 214.22 1351.22 214.13 1350.98 214.03 1350.75 213.92 1350.45 213.81 1350.09 213.64 1349.53 213.4 1348.76 213.2 1348.16 212.95 1347.66 212.81 1347.39 212.6 1346.97 212.34 1346.62 212.14 1346.26 211.97 1345.99 211.88 1345.71 211.68 1345.39 211.56 1345.14 211.41 1344.83 211.27 1344.6 211.11 1344.22 210.87 1343.71 210.77 1343.45 210.61 1343.05 210.38 1342.4 210.3 1342.14 210.15 1341.7 210.06 1341.42 209.97 1341.12 209.84 1340.85 209.71 1340.51 209.48 1340.18 209.3 1339.95 209.15 1339.66 209.01 1339.37 208.82 1339.01 208.72 1338.7 208.54 1338.2 208.5 1337.87 208.34 1337.43 208.09 1336.81 207.82 1336.4 207.6 1336.11 207.47 1335.9 207.28 1335.6 207.04 1335.38 206.82 1335.12 206.58 1334.78 206.33 1334.38 206.09 1333.94 205.76 1333.63 205.46 1333.27 205.27 1333.09 205.02 1332.75 204.9 1332.51 204.72 1332.22 204.6 1331.92 204.38 1331.51 204.29 1331.29 204.05 1330.82 203.73 1330.37 203.45 1329.95 203.01 1329.3 202.92 1329.01 202.78 1328.71 202.62 1328.42 202.43 1328.11 202.32 1327.87 202.13 1327.5 201.97 1327.17 201.8 1326.92 201.65 1326.67 201.5 1326.44 201.32 1326.07 201.08 1325.65 200.83 1325.31 200.64 1324.97 200.46 1324.7 200.33 1324.4 200.2 1324.14 199.9 1323.34 199.72 1323 199.48 1322.57 199.3 1322.24 199.15 1321.99 198.98 1321.66 198.7 1321.34 198.46 1321.03 198.23 1320.38 198.09 1319.98 197.88 1319.59 197.8 1319.25 197.66 1319.05 197.46 1318.71 197.34 1318.48 196.88 1317.81 196.71 1317.54 196.56 1317.25 196.5 1316.97 196.46 1316.68 196.28 1316.41 196.18 1316.16 196.1 1315.86 196.01 1315.44 195.9 1315.21 195.82 1314.99 195.75 1314.73 195.59 1314.22 195.48 1313.94 195.36 1313.63 195.3 1313.34 195.23 1313.1 195.17 1312.81 195.06 1312.49 194.83 1311.8 194.71 1311.43 194.47 1311.08 194.27 1310.69 194.11 1310.36 193.97 1310.1 193.76 1309.8 193.65 1309.52 193.49 1309.15 193.35 1308.85 193.26 1308.55 193.21 1308.25 193.03 1307.93 192.93 1307.71 192.76 1307.38 192.42 1306.85 192.25 1306.43 192.16 1306.19 191.97 1305.7 191.9 1305.47 191.72 1305.1 191.58 1304.72 191.42 1304.32 191.29 1303.98 191.2 1303.65 191.11 1303.36 190.9 1302.86 190.83 1302.55 190.74 1302.19 190.5 1301.26 190.36 1300.74 190.21 1300.19 190.09 1299.74 190.03 1299.27 189.88 1298.72 189.7 1298.13 189.58 1297.75 189.44 1297.42 189.36 1297.14 189.26 1296.81 189.1 1296.15 188.89 1295.55 188.78 1295.25 188.62 1294.97 188.46 1294.6 188.4 1294.36 188.31 1294.01 188.25 1293.75 188.13 1293.17 188.05 1292.82 187.97 1292.52 187.9 1292.24 187.85 1291.95 187.78 1291.54 187.62 1291.21 187.47 1290.8 187.27 1290.39 187.19 1290.08 186.95 1289.49 186.74 1288.98 186.53 1288.48 186.29 1287.48 186.17 1286.99 186.07 1286.62 185.98 1286.36 185.88 1285.99 185.81 1285.65 185.76 1285.21 185.72 1284.95 185.65 1284.41 185.63 1284.05 185.59 1283.54 185.56 1283.16 185.52 1282.8 185.48 1282.56 185.44 1282.23 185.35 1281.78 185.27 1281.26 185.07 1280.74 185.02 1280.44 184.83 1280.02 184.7 1279.74 184.62 1279.53 184.38 1279.07 184.22 1278.73 184.12 1278.42 183.79 1277.14 183.6 1276.13 183.57 1275.13 183.47 1274.35 183.38 1273.96 183.26 1272.77 183.11 1272.35 182.93 1271.7 182.51 1269.91 181.69 1267.93 181.46 1267.29 181.23 1266.54 180.99 1265.82 180.46 1264.44 180.35 1264.16 180.27 1263.86 180.25 1263.49 180.17 1263.09 180.02 1262.5 179.82 1261.62 179.38 1260.07 179.01 1258.59 178.87 1258.23 178.64 1257.54 178.41 1256.76 178.26 1256.22 178.07 1255.82 177.82 1255.12 177.56 1254.44 177.31 1253.66 177.09 1252.99 176.9 1252.54 176.38 1251.17 176.23 1250.93 175.52 1249.3 175.4 1248.73 175.31 1248.51 174.94 1247.17 174.74 1246.35 174.46 1245.54 174.3 1245.17 173.97 1243.89 173.61 1242.55 173.14 1241.33 172.77 1240.52 172.58 1240.11 172.12 1239.04 172.03 1238.8 171.78 1238.38 171.59 1238 171.4 1237.62 171.12 1236.82 170.72 1236 170.53 1235.58 170.36 1235.03 170.16 1234.1 169.96 1233.41 169.76 1232.57 169.59 1232.19 169.19 1231.12 169 1230.72 168.7 1230.03 168.4 1229.1 167.97 1228.19 167.6 1227.38 167.38 1227.08 166.84 1225.64 166.39 1224.6 165.98 1223.81 165.82 1223.43 165.56 1222.67 165.34 1222.24 165.13 1221.53 164.86 1220.72 164.61 1220.01 164.42 1219.69 164.13 1219.02 163.97 1218.73 163.72 1218.19 163.4 1217.66 163.15 1217.28 162.8 1216.68 162.43 1215.6 162.28 1215.3 162.05 1214.76 161.76 1213.89 161.59 1213.56 160.71 1212.19 160.03 1211.16 159.48 1209.67 159.14 1209.15 159.03 1208.84 158.61 1207.95 158.41 1207.53 158.21 1207.08 158.1 1206.8 157.72 1205.94 157.57 1205.71 157.26 1205.08 157.11 1204.75 156.74 1204.17 156.43 1203.6 155.98 1202.54 155.73 1202.2 155.29 1201.28 154.92 1200.63 154.62 1199.78 154.33 1199.17 154.05 1198.59 153.76 1198.18 153.45 1197.78 153.26 1197.5 153.13 1197.19 152.54 1196.33 152.27 1195.84 151.87 1194.86 151.67 1194.46 151.45 1194.11 151.37 1193.86 150.99 1193.07 150.78 1192.65 150.31 1191.57 150.19 1191.33 150.09 1191.08 149.72 1190.4 149.56 1190.08 149.34 1189.73 149.15 1189.45 149.04 1189.21 148.74 1188.68 148.58 1188.47 148.41 1188.15 148.21 1187.8 148.05 1187.5 147.72 1186.96 147.36 1186.41 147.13 1186.02 146.92 1185.68 146.66 1185.26 146.54 1185.02 146.11 1184.33 145.8 1183.77 145.46 1183.25 145.27 1183.06 144.11 1181.3 143.61 1180.49 143.33 1180 143.19 1179.68 143 1179.41 142.66 1178.88 142.55 1178.61 142.44 1178.35 142.15 1177.91 141.97 1177.66 141.64 1177 141.25 1176.18 141.03 1175.78 140.76 1175.37 140.26 1174.55 139.96 1174.06 139.71 1173.6 139.35 1173.05 139.19 1172.76 138.98 1172.35 138.67 1171.63 138.61 1171.39 138.41 1170.99 137.91 1170.14 137.77 1169.97 137.62 1169.71 137.4 1169.45 136.71 1168.63 136.22 1168.03 135.44 1167.19 134.99 1166.63 134.62 1165.92 134.38 1165.65 134.16 1165.4 133.79 1164.85 133.47 1164.35 133.34 1164.06 133.18 1163.74 133.09 1163.45 132.89 1163.12 132.37 1162.17 132 1161.22 131.61 1160.47 131.51 1160.18 131.48 1159.78 131.19 1159.25 130.95 1158.75 130.66 1158.49 130.49 1158.27 130.19 1158.06 129.83 1157.98 129.39 1158.16 129.04 1158.37 128.45 1158.94 127.35 1159.63 126.65 1160.18 126.34 1160.28 126.07 1160.21 125.98 1159.91 126.22 1159.53 126.84 1159.28 127.15 1158.95 127.53 1158.73 128.15 1158.27 128.43 1158.14 128.75 1157.92 128.98 1157.84 129.34 1157.68 129.61 1157.49 129.86 1157.28 130.15 1156.9 130.17 1156.67 129.98 1156.4 129.81 1156.18 129.54 1155.98 129.1 1155.43 128.76 1154.67 128.21 1154.11 127.84 1153.64 127.47 1153.27 127.34 1153.04 127.16 1152.88 127.01 1152.57 126.67 1152 126.38 1151.58 125.91 1151.06 125.63 1150.65 125.41 1150.22 125.16 1149.79 124.72 1148.63 124.28 1147.53 124.19 1147.21 123.55 1146.06 123.22 1145.43 122.71 1144.68 122.02 1143.78 121.83 1143.54 121.33 1142.8 120.53 1141.8 120.07 1141.24 119.39 1140.51 119.13 1140.23 118.96 1140.01 118.78 1139.86 118.25 1138.94 117.39 1137.69 116.78 1137.02 116.09 1136.19 115.86 1135.89 115.22 1135.12 114.78 1134.73 114.2 1134.1 114.06 1133.9 113.89 1133.65 113.7 1133.24 113.45 1132.66 113.17 1131.81 112.85 1130.89 112.15 1129.81 111.83 1129.29 111.62 1128.88 111.4 1128.51 111.09 1128.12 110.86 1127.86 110.59 1127.61 109.82 1127.08 109.43 1126.71 108.78 1126.25 108.46 1126.06 108.18 1125.79 107.76 1124.84 107.44 1124.48 107.3 1124.28 106.68 1123.74 106.43 1123.45 106.14 1123.52 106.01 1123.29 105.72 1122.89 105.49 1122.64 105.35 1122.45 105.02 1122.06 104.71 1121.69 104.52 1121.5 104.27 1121.16 103.72 1120.71 103.28 1120.47 102.59 1120.07 101.95 1119.84 101.74 1119.73 101.35 1119.65 100.82 1119.45 100.56 1119.46 100.25 1119.42 99.62 1119.45 99.29 1119.45 98.89 1119.53 98.37 1119.53 98.01 1119.61 97.63 1119.94 97.38 1120.23 97.2 1120.45 96.98 1120.85 96.48 1121.44 96.2 1121.88 96.07 1122.17 95.95 1122.4 95.52 1122.7 95.3 1122.96 95.08 1123.07 94.48 1122.68 94 1122.64 93.65 1122.68 93.25 1122.46 92.94 1122.29 93.13 1122.08 93.46 1122.06 93.84 1122.05 94.09 1121.98 94.43 1121.78 94.53 1121.52 94.37 1121.35 94.3 1121.12 94.12 1120.85 93.73 1120.6 93.49 1120.49 92.98 1120.43 92.51 1120.22 92.16 1120.18 91.77 1119.8 91.63 1119.36 91.42 1119.06 91 1118.83 90.64 1118.94 90.25 1119.16 89.47 1119.26 89.17 1119.32 89.06 1119.58 89.06 1119.89 88.83 1120.22 88.57 1120.3 88.33 1120.45 88.16 1120.63 87.91 1120.83 87.65 1120.86 87.36 1120.67 86.83 1120.28 86.47 1119.89 86.12 1119.83 85.59 1119.89 85.09 1120 85.34 1120.16 85.54 1120.42 85.31 1120.66 84.87 1120.86 84.41 1120.96 84.12 1120.99 83.48 1121.31 83.18 1121.58 82.93 1121.66 82.33 1121.69 82.03 1121.7 81.53 1122.01 81.2 1122.14 80.86 1122.22 80.55 1122.18 80.27 1122.06 79.87 1121.68 79.78 1121.37 79.81 1120.89 79.77 1120.67 79.54 1120.59 79.26 1120.73 78.92 1121.01 78.72 1121.28 78.31 1121.45 78 1121.52 77.74 1121.75 77.43 1121.99 77.29 1122.22 77.14 1122.58 76.99 1122.79 76.76 1122.88 76.41 1122.87 76.06 1122.84 75.82 1122.79 75.32 1122.9 75 1122.95 74.53 1123.2 74.29 1123.24 73.94 1123.37 73.66 1123.57 73.39 1123.68 73.12 1123.63 72.86 1123.25 72.77 1122.81 72.82 1122.4 72.81 1122.12 72.65 1121.87 72.39 1121.66 72.11 1121.49 71.78 1121.37 71.38 1121.15 71.06 1120.89 70.65 1120.4 70.5 1120.12 70.34 1119.69 70.29 1119.45 70.2 1119.16 70.04 1118.96 69.73 1118.81 69.25 1118.58 68.66 1118.34 68.37 1118.47 68.39 1118.86 68.32 1119.1 68.15 1119.29 67.95 1119.44 67.65 1119.55 67.34 1119.53 66.97 1119.34 66.75 1119.43 66.6 1119.61 66.29 1119.89 65.95 1120.06 65.45 1120.05 64.91 1120.02 64.27 1119.93 63.84 1119.92 63.45 1119.85 62.83 1119.73 62.33 1119.43 61.97 1119.01 61.71 1118.57 61.51 1118.11 61.35 1117.9 61.09 1117.63 60.94 1117.27 60.62 1116.83 60.56 1116.32 60.5 1116.06 60.7 1115.73 61.06 1115.51 61.3 1115.26 61.48 1114.78 61.3 1114.59 61.05 1114.51 60.69 1114.43 60.51 1114.14 60.88 1114.1 61.24 1114.26 61.6 1114.27 62.3 1114.41 62.94 1114.58 63.43 1114.64 63.8 1114.57 64.05 1114.54 64.57 1114.33 64.96 1113.87 65.26 1113.69 65.55 1113.69 65.88 1113.85 65.98 1113.53 65.98 1113.12 66.03 1112.7 66.01 1112.36 65.86 1112.01 65.1 1111.29 65.14 1110.95 65.32 1110.71 65.72 1110.5 66.12 1110.42 66.57 1110.39 66.85 1110.35 67.13 1110.14 67.3 1109.84 67.47 1109.61 67.8 1109.41 68.29 1109.32 68.78 1109.33 69.02 1109.28 69.23 1109.15 69.3 1108.92 69.03 1108.3 68.77 1107.81 68.56 1107.28 68.47 1106.78 68.55 1106.43 68.56 1105.89 68.45 1105.46 68.37 1104.87 68.32 1104.38 68.2 1103.95 68.03 1103.65 67.47 1102.76 67.35 1102.43 67.13 1102.22 66.63 1102.29 66.18 1102.47 65.71 1102.62 65.23 1102.67 64.88 1102.59 64.58 1102.59 64.35 1102.53 63.99 1102.65 63.59 1102.66 63.1 1102.59 62.65 1102.37 62.31 1102.47 61.99 1102.71 61.67 1102.95 61.26 1103.04 60.73 1102.96 60.29 1102.8 59.79 1102.75 59.38 1102.55 59.1 1102.45 58.62 1102.55 58.04 1102.71 57.59 1102.98 57.26 1103.04 56.65 1103.14 56.3 1103.1 55.67 1103.17 55.39 1103.17 55 1103.1 54.4 1103.09 53.98 1102.9 53.64 1102.63 53.16 1102.35 52.67 1102.22 52.23 1102.19 51.73 1102.26 51.49 1102.09 51.39 1101.64 51.39 1101.27 51.44 1100.91 51.62 1100.35 51.88 1100.24 52.12 1100.18 52.39 1100.05 52.57 1099.77 52.64 1099.51 52.86 1099.25 52.29 1098.79 51.88 1098.33 51.27 1097.97 50.71 1097.76 50.34 1097.54 50.11 1097.29 49.97 1096.88 50.11 1096.7 50.69 1096.66 50.92 1096.53 51.26 1096.22 51.21 1095.52 51.39 1095.13 51.64 1094.79 51.84 1094.7 52.05 1094.51 52.44 1094.29 52.86 1094 53.34 1093.93 53.53 1093.77 53.6 1093.43 53.56 1093.08 53.26 1092.71 53.22 1092.39 53.78 1092.16 54.28 1092.05 54.45 1091.86 54.43 1091.61 54.37 1091.38 54.49 1091.04 54.7 1090.71 54.92 1090.53 55.27 1090.46 55.58 1090.6 56.52 1090.63 56.98 1090.93 57.41 1091.31 57.63 1091.45 57.87 1091.45 58.11 1091.37 58.29 1091.24 58.43 1090.93 58.62 1090.49 58.78 1090.13 58.9 1089.67 58.91 1089.26 59.02 1088.99 59.15 1088.62 59.14 1087.95 59.23 1087.65 59.34 1087.43 59.39 1087.01 59.34 1086.68 59.17 1086.19 58.88 1085.3 58.69 1084.69 58.49 1084.11 58.25 1083.66 58.05 1083.09 57.79 1082.3 57.5 1081.4 56.97 1080.1 56.73 1079.58 56.61 1079.29 56.34 1078.72 55.94 1078.27 55.71 1077.93 55.36 1077.56 55.23 1077.34 55.06 1076.87 54.92 1076.3 54.81 1075.59 54.32 1074.3 54.12 1073.08 53.99 1072.54 53.59 1071.57 53.34 1070.42 53.18 1069.57 53.1 1068.86 52.87 1067.97 52.71 1067.65 52.16 1067.41 51.68 1067.28 51.39 1067.3 51.03 1067.23 50.73 1067.23 50.18 1067.46 49.83 1067.6 49.45 1067.53 49.15 1067.36 48.99 1067.15 48.92 1066.92 48.91 1066.63 48.88 1066.13 49.05 1065.66 48.94 1065.4 48.75 1065.21 48.54 1065.06 48.4 1064.75 48.37 1064.42 48.44 1063.9 48.52 1063.69 48.76 1063.49 49.02 1063.43 49.11 1063.2 49.13 1062.95 49.31 1062.39 49.44 1062.22 49.65 1062.05 50.09 1061.95 50.34 1061.95 50.59 1061.92 51 1061.73 51.13 1061.52 51.23 1061.13 51.29 1060.92 51.55 1060.99 51.57 1060.79 51.6 1060.6 51.66 1060.38 51.74 1060.19 51.84 1060.05 52.04 1059.93 52.12 1059.93 52.28 1059.96 52.45 1059.97 52.64 1059.89 52.75 1059.77 52.95 1059.49 52.87 1059.31 52.81 1059.06 52.78 1058.76 52.75 1058.48 52.69 1058.23 52.61 1058.06 52.4 1058.06 52.23 1058.07 52.07 1057.99 51.88 1057.99 51.88 1057.87 52.04 1057.7 52.25 1057.52 52.26 1057.35 52.03 1057.18 51.93 1057.04 51.74 1056.89 51.62 1056.55 51.46 1056.36 51.24 1055.91 51.11 1055.56 51 1055.36 50.78 1055.03 50.58 1054.85 50.41 1054.74 50.19 1054.62 50.02 1054.49 49.95 1054.26 49.84 1053.99 49.69 1053.85 49.53 1053.74 49.36 1053.66 49.2 1053.61 48.85 1053.63 48.73 1053.75 48.59 1053.86 48.27 1054.02 48.3 1053.74 48.33 1053.46 48.13 1053.57 47.85 1053.8 47.78 1053.71 47.53 1053.71 47.41 1053.6 47.24 1053.56 47.06 1053.6 46.96 1053.71 46.88 1053.89 46.75 1053.89 46.55 1053.81 46.43 1053.69 46.26 1053.75 46.18 1053.95 46.02 1054.24 45.77 1054.38 45.58 1054.43 Z" id="VENTANILLA" class="area" title="VENTANILLA"></path>

</svg>